<svg xmlns="http://www.w3.org/2000/svg" width="19.5" height="19.5" viewBox="0 0 19.5 19.5">
  <g id="Group_7772" data-name="Group 7772" transform="translate(-2.25 -2.25)">
    <path id="Path_19545" data-name="Path 19545" d="M19,9.25A.25.25,0,0,1,18.75,9,6.76,6.76,0,0,0,12,2.25H9A6.76,6.76,0,0,0,2.25,9v7A5.76,5.76,0,0,0,8,21.75h8A5.76,5.76,0,0,0,21.75,16V12A2.75,2.75,0,0,0,19,9.25ZM20.25,16A4.26,4.26,0,0,1,16,20.25H8A4.26,4.26,0,0,1,3.75,16V9A5.26,5.26,0,0,1,9,3.75h3A5.26,5.26,0,0,1,17.25,9,1.76,1.76,0,0,0,19,10.75,1.25,1.25,0,0,1,20.25,12Z" fill="#3545d6"/>
    <path id="Path_19546" data-name="Path 19546" d="M9.5,10.75h2a2.25,2.25,0,0,0,0-4.5h-2a2.25,2.25,0,0,0,0,4.5Zm0-3h2a.75.75,0,0,1,0,1.5h-2a.75.75,0,0,1,0-1.5Zm5,5.5h-5a2.25,2.25,0,0,0,0,4.5h5a2.25,2.25,0,0,0,0-4.5Zm0,3h-5a.75.75,0,1,1,0-1.5h5a.75.75,0,1,1,0,1.5Z" fill="#3545d6"/>
  </g>
</svg>
