<svg id="cc283d4160dac0c40399eae762971c12" xmlns="http://www.w3.org/2000/svg" width="52.969" height="20.146" viewBox="0 0 52.969 20.146">
  <path id="Path_18749" data-name="Path 18749" d="M6.961,25.2C.666,25.2.414,30.153.5,31.412c0,0-.336,5.708,6.3,5.708,5.708,0,5.96-3.609,5.96-3.609h-2.6s-.5,1.931-3.358,1.847a3.735,3.735,0,0,1-3.777-3.609H13.089C13.173,31.747,13.928,25.2,6.961,25.2ZM3.1,30.069a3.48,3.48,0,0,1,3.777-3.19,3.271,3.271,0,0,1,3.609,3.19Z" transform="translate(-0.411 -20.835)" fill="#ff6c6c"/>
  <path id="Path_18750" data-name="Path 18750" d="M.5,30.656S.164,37.12,6.8,37.12c5.708,0,5.96-3.609,5.96-3.609h-2.6s-.5,1.931-3.358,1.847a3.735,3.735,0,0,1-3.777-3.609H13.091S13.846,25.2,6.879,25.2M3.1,30.069a3.48,3.48,0,0,1,3.777-3.19,3.271,3.271,0,0,1,3.609,3.19Z" transform="translate(-0.413 -20.835)" fill="#ee3b3f"/>
  <path id="Path_18751" data-name="Path 18751" d="M22.819,24.449c-3.19,0-4.365,1.847-4.365,1.847V20H15.6l.084,13.347s0,1.763-.084,2.6h2.434l.084-1.511s1.175,1.847,4.533,1.847,6.044-2.1,6.128-5.876a5.772,5.772,0,0,0-5.96-5.96Zm-.755,10.157c-3.945.084-3.945-4.2-3.945-4.2s-.168-4.113,3.945-4.2c4.029-.084,3.945,4.281,3.945,4.281S26.009,34.522,22.063,34.606Z" transform="translate(-2.838 -20)" fill="#1992dd"/>
  <path id="Path_18752" data-name="Path 18752" d="M22.8,24.449c-3.19,0-4.365,1.847-4.365,1.847V20l-2.854,2.6V33.347s0,1.763-.084,2.6h2.434l.084-1.511s1.175,1.847,4.533,1.847,6.044-2.1,6.128-5.876a5.66,5.66,0,0,0-5.876-5.96Zm-.755,10.157c-3.945.084-3.945-4.2-3.945-4.2s-.168-4.113,3.945-4.2c4.029-.084,3.945,4.281,3.945,4.281S25.993,34.522,22.047,34.606Z" transform="translate(-2.822 -20)" fill="#0468b2"/>
  <path id="Path_18753" data-name="Path 18753" d="M42.725,34.066c0-1.763.084-3.274,0-4.365-.084-1.259.084-4.449-5.372-4.7,0,0-5.2-.084-5.792,3.274h2.686s.168-1.679,2.938-1.595c2.6.084,3.022,1.343,3.022,2.938,0,0-2.182.084-2.938.084-1.343,0-5.96.168-6.379,3.022-.5,3.358,2.434,4.365,4.785,4.365s3.693-.672,4.7-1.931l.084,1.595h2.35c0-.084-.084-.923-.084-2.686Zm-6.631,1.427s-2.518,0-2.686-2.015c-.168-2.182,3.861-2.015,3.861-2.015h2.854c.084,0,.588,4.113-4.029,4.029Z" transform="translate(-5.284 -20.803)" fill="#ffce00"/>
  <path id="Path_18754" data-name="Path 18754" d="M31.812,28.39h2.434s.168-1.679,2.938-1.595c2.6.084,3.022,1.343,3.022,2.938,0,0-2.182.084-2.938.084-1.343,0-5.96.168-6.379,3.022-.5,3.358,2.434,4.365,4.785,4.365s3.693-.672,4.7-1.931l.084,1.595h2.35s-.084-.839-.084-2.6.084-3.274,0-4.365c-.084-1.259.168-4.449-5.288-4.7M36.093,35.525s-2.518,0-2.686-2.015c-.168-2.182,3.861-2.015,3.861-2.015h2.854c.084,0,.588,4.113-4.029,4.029Z" transform="translate(-5.284 -20.835)" fill="#f7ab1b"/>
  <path id="Path_18755" data-name="Path 18755" d="M43.4,26h2.938l4.281,8.562L54.9,26h2.686L49.78,41.109H46.926l2.266-4.2Z" transform="translate(-7.303 -20.964)" fill="#85dd52"/>
  <path id="Path_18756" data-name="Path 18756" d="M44.8,28.15l1.763-2.182,4.281,8.478,4.281-8.478h2.686L50,41.077H47.15L49.417,36.8Zm13.934-1.763v-.336H58.65v-.084h.084V25.8H58.9v.168h.168v.084H58.9v.336c0,.084,0,.084.084.084h.084v.084H58.9c-.084.084-.168,0-.168-.168Zm.588-.42h.168v.084c.084-.084.084-.084.252-.084a.42.42,0,0,0,.5,0,.223.223,0,0,1,.252.252v.42h-.168V26.3a.168.168,0,1,0-.336,0v.336h-.168V26.3a.168.168,0,1,0-.336,0v.336h-.168v-.672Z" transform="translate(-7.527 -20.931)" fill="#6bb745"/>
  <path id="Path_18757" data-name="Path 18757" d="M10.221,29.143a3.346,3.346,0,0,1,.336,1.343H3.086A3.167,3.167,0,0,1,4.764,27.8a6.834,6.834,0,0,0-4.2,2.35A6.954,6.954,0,0,0,.4,31.829s-.336,5.708,6.3,5.708c4.869,0,5.792-2.6,5.96-3.358v-.252h-2.6s-.5,1.931-3.358,1.847C3.17,35.774,3,32.165,3,32.165h9.317A9.843,9.843,0,0,0,10.221,29.143Z" transform="translate(-0.397 -21.253)" fill="#c60c1e"/>
  <path id="Path_18758" data-name="Path 18758" d="M28.075,34.379a6.97,6.97,0,0,0-2.854-5.2,5.081,5.081,0,0,1,.672,2.686s.084,4.113-3.945,4.113C18,36.058,18,31.777,18,31.777s-.084-2.77,2.1-3.777a6.776,6.776,0,0,0-4.617,2.854V34.8s0,1.763-.084,2.6h2.434l.084-1.511s1.175,1.847,4.533,1.847C24.969,37.569,27.152,36.478,28.075,34.379Z" transform="translate(-2.806 -21.285)" fill="#064c91"/>
  <g id="Group_768" data-name="Group 768" transform="translate(25.464 6.631)">
    <path id="Path_18759" data-name="Path 18759" d="M42.709,34.531V30.838a6.81,6.81,0,0,0-3.022-2.518,2.649,2.649,0,0,1,.42,1.847s-2.182.084-2.938.084c-1.343,0-5.96.168-6.379,3.022-.5,3.358,2.434,4.365,4.785,4.365s3.693-.672,4.7-1.931l.084,1.595h2.35a24.811,24.811,0,0,0,0-2.77Zm-6.631,1.427s-2.518,0-2.686-2.015c-.168-2.182,3.861-2.015,3.861-2.015h2.854c.084,0,.588,4.113-4.029,4.029Zm-3.106-7.135h1.343A2.645,2.645,0,0,1,34.9,27.9C34.147,28.068,33.475,28.823,32.972,28.823Z" transform="translate(-30.732 -27.9)" fill="#f48d1c"/>
  </g>
  <path id="Path_18760" data-name="Path 18760" d="M50.133,41.479,55.589,30.9a11.216,11.216,0,0,0-1.679-1.763l-2.938,5.624L47.615,28.3A6.772,6.772,0,0,0,45.6,29.727l3.945,7.555-2.266,4.2Z" transform="translate(-7.656 -21.333)" fill="#4a9e19"/>
</svg>
