<svg id="_7e83c7b9eb3419b939a93859e587f532" data-name="7e83c7b9eb3419b939a93859e587f532" xmlns="http://www.w3.org/2000/svg" width="62" height="20" viewBox="0 0 62 20">
  <path id="Path_19481" data-name="Path 19481" d="M1.7,34.6a4.265,4.265,0,0,0,2.4.6c.8,0,1.3-.4,1.3-1,0-.5-.3-.9-1.2-1.4a3.149,3.149,0,0,1-1.9-2.7c0-2.1,1.8-3.5,4.3-3.5a5.214,5.214,0,0,1,2.5.5l-.7,2.1a4.359,4.359,0,0,0-1.8-.4c-.8,0-1.4.4-1.4,1,0,.5.4.8,1.1,1.2,1.1.7,2.1,1.6,2.1,2.8,0,2.3-1.9,3.7-4.5,3.6A5.619,5.619,0,0,1,1,36.7l.7-2.1ZM9,37l2.9-15h2.9l-1.1,6v.1a4.038,4.038,0,0,1,3.1-1.5c1.5,0,2.4,1,2.4,2.7a12.366,12.366,0,0,1-.2,1.8L17.9,37H15l1.1-5.8a4.869,4.869,0,0,0,.1-1.2c0-.6-.3-1.1-.9-1.1-.9,0-1.9,1.1-2.3,3l-1,5H9Zm20.9-6.3c0,3.6-2.3,6.7-5.8,6.7a3.8,3.8,0,0,1-4-4.1c0-3.6,2.3-6.7,5.9-6.7a3.826,3.826,0,0,1,3.9,4.1ZM23,33.3c0,1.1.4,1.9,1.4,1.9,1.6,0,2.4-2.8,2.4-4.6,0-.9-.3-1.8-1.4-1.8-1.5.1-2.4,2.8-2.4,4.5ZM29.1,41l2-10.4c.2-1.2.5-2.6.6-3.6h2.6l-.2,1a3.983,3.983,0,0,1,3.1-1.6c2.1,0,3,1.9,3,3.8,0,3.6-2.3,7.1-5.7,7.1-.5.1-1.2-.3-1.5-.3h-.1l-.8,4h-3Zm4.2-6.2a1.594,1.594,0,0,0,1.2.4c1.6,0,2.8-2.7,2.8-4.6,0-.8-.3-1.6-1.2-1.6-1,0-2,1.2-2.3,3ZM40.5,37l2-10h3l-2,10Zm3.8-11a1.578,1.578,0,0,1-1.4-1.7,1.71,1.71,0,0,1,1.7-1.8,1.558,1.558,0,0,1,1.5,1.6A1.952,1.952,0,0,1,44.3,26ZM46,37l1.6-8H46.2l.4-2H48l.1-.6A5.826,5.826,0,0,1,49.8,23a4.271,4.271,0,0,1,2.9-1,5.666,5.666,0,0,1,1.6.2l-.6,2.3a2.92,2.92,0,0,0-.9-.2c-1,0-1.6,1-1.7,2l-.3.7h2l-.4,2h-2l-1.6,8ZM56.5,27l.5,4.6c.1,1,.2,1.4.3,2.4a8.926,8.926,0,0,1,.9-2.4L60,27h3l-3.6,7.6a20.056,20.056,0,0,1-3.9,5.8A7.109,7.109,0,0,1,52.6,42l-.8-2.5a8.488,8.488,0,0,0,1.7-.8,4.552,4.552,0,0,0,1.6-1.8c.1-.1.1-.2.1-.4L53.4,27Z" transform="translate(-1 -22)" fill="#b4e52c"/>
  <g id="Group_1094" data-name="Group 1094">
    <path id="Path_19482" data-name="Path 19482" d="M6.6,26.6a5.214,5.214,0,0,1,2.5.5l-.7,2.1a4.359,4.359,0,0,0-1.8-.4c-.8,0-1.4.4-1.4,1,0,.5.4.8,1.1,1.2,1.1.7,2.1,1.6,2.1,2.8,0,2.3-1.9,3.7-4.5,3.6A5.619,5.619,0,0,1,1,36.7l.7-2.1a4.265,4.265,0,0,0,2.4.6c.8,0,1.3-.4,1.3-1,0-.5-.3-.9-1.2-1.4a3.149,3.149,0,0,1-1.9-2.7M9,37l2.6-11.9,3.2-2.9-1.1,5.9a4.038,4.038,0,0,1,3.1-1.5c1.5,0,2.4,1,2.4,2.7a12.366,12.366,0,0,1-.2,1.8L17.9,37H15l1.1-5.8a4.869,4.869,0,0,0,.1-1.2c0-.6-.3-1.1-.9-1.1-.9,0-1.9,1.1-2.3,3l-1,5H9ZM25.9,26.6a3.849,3.849,0,0,1,4,4.1c0,3.6-2.3,6.7-5.8,6.7a3.8,3.8,0,0,1-4-4.1m2.9,0c0,1.1.4,1.9,1.4,1.9,1.6,0,2.4-2.8,2.4-4.6,0-.9-.3-1.8-1.4-1.8C23.9,28.9,23,31.6,23,33.3ZM34.4,27l-.2,1a3.983,3.983,0,0,1,3.1-1.6c2.1,0,3,1.9,3,3.8,0,3.6-2.3,7.1-5.7,7.1-.6.1-1.3-.3-1.6-.3h-.1l-.8,4H29.2l2-10.6m2.1,4.4a1.594,1.594,0,0,0,1.2.4c1.6,0,2.8-2.7,2.8-4.6,0-.8-.3-1.6-1.2-1.6-1,0-2,1.2-2.3,3ZM40.5,37l2-7.6,3-2.4-2,10Zm4.1-14.5a1.5,1.5,0,0,1,1.5,1.6A1.8,1.8,0,0,1,44.4,26,1.578,1.578,0,0,1,43,24.3M52.6,22a3.233,3.233,0,0,1,1.6.3l-.6,2.3a2.92,2.92,0,0,0-.9-.2c-1,0-1.6,1-1.7,2l-.2.6h2l-.4,2h-2l-1.6,8H46l1.6-8H46.2l.4-2H48l.1-.6m8.4.6.5,4.5c.1,1,.2,1.5.3,2.5a8.926,8.926,0,0,1,.9-2.4L60,27h3l-3.6,7.6a20.056,20.056,0,0,1-3.9,5.8A7.109,7.109,0,0,1,52.6,42l-.8-2.5a8.488,8.488,0,0,0,1.7-.8,4.552,4.552,0,0,0,1.6-1.8.749.749,0,0,0,.1-.5l-.7-7.2,2-2.2Z" transform="translate(-1 -22)" fill="#8bb43f"/>
  </g>
</svg>
