<svg id="woocommerce-svgrepo-com" xmlns="http://www.w3.org/2000/svg" width="99.19" height="20" viewBox="0 0 99.19 20">
  <path id="Path_19661" data-name="Path 19661" d="M30.018,0H3.072A3.1,3.1,0,0,0,0,3.132v10.44A3.108,3.108,0,0,0,3.086,16.7H15.848L21.681,20l-1.326-3.3h9.663A3.108,3.108,0,0,0,33.1,13.571V3.132A3.108,3.108,0,0,0,30.018,0ZM2.5,2.418a1.084,1.084,0,0,0-.853.426,1.241,1.241,0,0,0-.217.92A60.271,60.271,0,0,0,3.668,14.19c.271.659.582.975.947.948.568-.041,1.245-.838,2.044-2.39q.629-1.319,1.949-3.956A13.666,13.666,0,0,0,11.6,14.643a1.352,1.352,0,0,0,1.069.508.872.872,0,0,0,.717-.495,1.651,1.651,0,0,0,.162-.907,25.958,25.958,0,0,1,.379-5.234,16.822,16.822,0,0,1,1.313-4.959,1.207,1.207,0,0,0,.135-.659,1.08,1.08,0,0,0-.42-.783,1.164,1.164,0,0,0-.853-.275,1.039,1.039,0,0,0-.893.6A21.382,21.382,0,0,0,11.423,10a25.954,25.954,0,0,1-1.286-4.7c-.149-.81-.514-1.2-1.11-1.154a1.288,1.288,0,0,0-1.015.824L5.048,10.7Q4.318,7.713,3.681,3.407A.993.993,0,0,0,2.5,2.418Zm26.079.989A3.12,3.12,0,0,1,30.749,5a5.259,5.259,0,0,1,.65,2.706,7.443,7.443,0,0,1-1.056,3.887,3.614,3.614,0,0,1-3.18,2.06,3.5,3.5,0,0,1-.731-.082,3.12,3.12,0,0,1-2.165-1.593,5.383,5.383,0,0,1-.65-2.72,7.361,7.361,0,0,1,1.056-3.874,3.645,3.645,0,0,1,3.18-2.06A3.5,3.5,0,0,1,28.583,3.407Zm-.568,7.431A3.652,3.652,0,0,0,29.044,8.8a6.025,6.025,0,0,0,.095-1.016,3.532,3.532,0,0,0-.244-1.25c-.2-.536-.474-.824-.8-.893-.487-.1-.961.179-1.407.852a4.474,4.474,0,0,0-.717,1.635,4.843,4.843,0,0,0-.095,1,3.531,3.531,0,0,0,.244,1.25c.2.536.474.824.8.893A1.291,1.291,0,0,0,28.015,10.838ZM22.263,5A3.148,3.148,0,0,0,20.1,3.407a3.5,3.5,0,0,0-.731-.082,3.645,3.645,0,0,0-3.18,2.06,7.36,7.36,0,0,0-1.056,3.874,5.383,5.383,0,0,0,.65,2.72,3.12,3.12,0,0,0,2.165,1.593,3.5,3.5,0,0,0,.731.082,3.614,3.614,0,0,0,3.18-2.06,7.443,7.443,0,0,0,1.056-3.887A5.26,5.26,0,0,0,22.263,5ZM20.558,8.8a3.651,3.651,0,0,1-1.029,2.033,1.291,1.291,0,0,1-1.1.44c-.325-.069-.6-.357-.8-.893a3.532,3.532,0,0,1-.244-1.25,4.843,4.843,0,0,1,.095-1A4.474,4.474,0,0,1,18.2,6.5c.447-.673.92-.948,1.408-.852.325.069.6.357.8.893a3.532,3.532,0,0,1,.244,1.25A4.886,4.886,0,0,1,20.558,8.8Z" transform="translate(0)" fill="#7f54b3" fill-rule="evenodd"/>
  <path id="Path_19662" data-name="Path 19662" d="M185.634,19.491a4.578,4.578,0,0,0-1.353,3.41,4.9,4.9,0,0,0,1.34,3.586,4.7,4.7,0,0,0,3.505,1.367,5.1,5.1,0,0,0,1.408-.217V25.446a4.555,4.555,0,0,1-1.232.2,2.216,2.216,0,0,1-1.719-.717,2.838,2.838,0,0,1-.65-1.962,2.813,2.813,0,0,1,.636-1.895,2.026,2.026,0,0,1,1.611-.744,5.055,5.055,0,0,1,1.353.2V18.341a5.653,5.653,0,0,0-1.475-.176A4.609,4.609,0,0,0,185.634,19.491Zm9.392-1.34A3.64,3.64,0,0,0,192.1,19.4a5.207,5.207,0,0,0-1.042,3.478,5.749,5.749,0,0,0,1.042,3.695,3.681,3.681,0,0,0,3.032,1.286,3.6,3.6,0,0,0,2.964-1.286,5.591,5.591,0,0,0,1.042-3.6,5.41,5.41,0,0,0-1.056-3.573A3.832,3.832,0,0,0,195.027,18.151Zm1.069,7.038a1.2,1.2,0,0,1-1.069.568,1.088,1.088,0,0,1-.988-.568A5.012,5.012,0,0,1,193.7,22.9c0-1.773.447-2.653,1.353-2.653.947,0,1.435.893,1.435,2.693A4.746,4.746,0,0,1,196.1,25.189Zm9.731-6.78-.487,2.071c-.122.528-.244,1.069-.352,1.624l-.271,1.435c-.257-1.435-.609-3.14-1.056-5.129h-3.14l-1.177,9.216H201.7l.636-6.347,1.611,6.347h1.678l1.543-6.334.663,6.334h2.463l-1.245-9.216Zm11.274,0-.487,2.071c-.122.528-.244,1.069-.352,1.624l-.271,1.435c-.257-1.435-.609-3.14-1.056-5.129H211.8l-1.177,9.216h2.355l.636-6.347,1.611,6.347H216.9l1.529-6.334.663,6.334h2.463l-1.245-9.216Zm7.66,5.576h2.206V22.076H224.76V20.384H227.3V18.422H222.27v9.216h5.048V25.676H224.76Zm9.568-1.462a2.463,2.463,0,0,0,.392-1.3,2.426,2.426,0,0,0-1.015-2.057,4.591,4.591,0,0,0-2.774-.758h-2.9v9.216h2.49v-4.2h.041l2.016,4.2h2.626l-1.989-4.155A2.46,2.46,0,0,0,234.329,22.523Zm-3.816-.149V20.181a2.277,2.277,0,0,1,1.272.3,1.053,1.053,0,0,1,.379.92C232.163,22.035,231.609,22.36,230.512,22.374Zm5.67-2.883a4.579,4.579,0,0,0-1.353,3.41,4.9,4.9,0,0,0,1.34,3.586,4.7,4.7,0,0,0,3.505,1.367,5.091,5.091,0,0,0,1.407-.217V25.446a4.55,4.55,0,0,1-1.232.2,2.216,2.216,0,0,1-1.718-.717,2.837,2.837,0,0,1-.65-1.962,2.813,2.813,0,0,1,.636-1.895,2.026,2.026,0,0,1,1.61-.744,5.054,5.054,0,0,1,1.353.2V18.341a5.648,5.648,0,0,0-1.475-.176A4.632,4.632,0,0,0,236.183,19.491Zm8.08,6.158V23.971h2.205V22.063h-2.205V20.371h2.557V18.408h-5.034v9.216h5.048V25.662h-2.571Z" transform="translate(-147.644 -14.585)" fill-rule="evenodd"/>
</svg>
