<svg xmlns="http://www.w3.org/2000/svg" width="141.497" height="33.632" viewBox="0 0 141.497 33.632">
  <g id="_19716ff71db8d4cbabd3e0a537c1aa90" data-name="19716ff71db8d4cbabd3e0a537c1aa90" transform="translate(0 0)">
    <path id="Path_19488" data-name="Path 19488" d="M326.793,316.822a1.441,1.441,0,0,0,1.524-.939l.778-8.8c0-.87-1.019-1.584-2.3-1.584s-2.3.714-2.3,1.584l.778,8.8a1.436,1.436,0,0,0,1.52.939h0m-4.756,2.748a1.435,1.435,0,0,0-.051-1.788l-7.232-5.073c-.752-.435-1.879.089-2.519,1.2s-.528,2.346.222,2.782l8.008,3.729a1.449,1.449,0,0,0,1.575-.853l0,.005m9.516,0a1.449,1.449,0,0,0,1.575.853l8.008-3.729c.755-.435.862-1.673.226-2.782s-1.773-1.634-2.522-1.2l-7.233,5.073a1.442,1.442,0,0,0-.051,1.788l0-.005m-4.76,8.248a1.439,1.439,0,0,1,1.524.936l.778,8.8c0,.872-1.019,1.585-2.3,1.585s-2.3-.712-2.3-1.585l.778-8.8a1.433,1.433,0,0,1,1.52-.936h0m4.76-2.749a1.441,1.441,0,0,1,1.575-.849l8.008,3.726c.755.436.862,1.675.226,2.784s-1.773,1.632-2.522,1.2l-7.233-5.069a1.446,1.446,0,0,1-.051-1.791h0m-9.515,0a1.439,1.439,0,0,1-.051,1.791l-7.232,5.069c-.752.435-1.879-.092-2.519-1.2s-.528-2.348.222-2.784l8.008-3.726a1.44,1.44,0,0,1,1.575.85h0" transform="translate(-202.503 -305.5)" fill="#1e3f5b"/>
    <path id="Path_19489" data-name="Path 19489" d="M-305.83,364.734a2.8,2.8,0,0,1-.1.793A2.778,2.778,0,0,1-308.6,367.4a1.81,1.81,0,0,1-1.969-1.94c0-2.015,2.217-2.571,4.742-2.557v1.828Zm3.959-3.511c0-3.322-1.419-6.245-6.216-6.245a11.352,11.352,0,0,0-5.483,1.308l.781,2.671a8.028,8.028,0,0,1,4-1.125c2.433-.007,2.831,1.378,2.831,2.264v.21c-5.3-.008-8.656,1.828-8.656,5.569a4.416,4.416,0,0,0,4.675,4.427,5.311,5.311,0,0,0,4.265-1.9h.09s.6,2.534,3.944,1.565a21.542,21.542,0,0,1-.232-3.532v-5.216m-82.63-10.769s3.465,14.2,4.019,16.5c.646,2.69,1.809,3.68,5.162,3.012l2.164-8.8c.549-2.188.916-3.748,1.269-5.971h.062a58.416,58.416,0,0,0,1.052,5.978s.88,4,1.332,6.1,1.711,3.421,5,2.7l5.156-19.517h-4.162l-1.761,8.439c-.473,2.455-.9,4.376-1.234,6.622h-.059c-.3-2.226-.684-4.068-1.165-6.461l-1.832-8.6h-4.337l-1.961,8.382c-.555,2.548-1.075,4.6-1.405,6.775h-.06c-.338-2.044-.789-4.63-1.277-7.1,0,0-1.164-6-1.573-8.063H-384.5m33.083,14.28a2.757,2.757,0,0,1-.1.793,2.778,2.778,0,0,1-2.674,1.875,1.809,1.809,0,0,1-1.967-1.94c0-2.015,2.217-2.571,4.741-2.557v1.828Zm3.959-3.511c0-3.322-1.419-6.245-6.215-6.245a11.355,11.355,0,0,0-5.484,1.308l.78,2.671a8.027,8.027,0,0,1,4-1.125c2.435-.007,2.833,1.378,2.833,2.264v.21c-5.305-.008-8.656,1.828-8.656,5.569a4.415,4.415,0,0,0,4.672,4.427,5.315,5.315,0,0,0,4.268-1.9h.089s.607,2.534,3.945,1.565a21.509,21.509,0,0,1-.231-3.532v-5.216m6.607,4.6V350.454h-3.964v19.517h3.964v-4.144M-289,350.454v14.4c0,1.986.374,3.376,1.173,4.226A4.393,4.393,0,0,0-284.6,370.3a9.443,9.443,0,0,0,2.869-.425l-.051-3.1a6.056,6.056,0,0,1-1.506.179c-1.351,0-1.8-.865-1.8-2.647V358.8h3.452v-3.735h-3.452v-4.615H-289m-10.232,4.855v14.662h4.089v-7.507a5.56,5.56,0,0,1,.089-1.083,3.086,3.086,0,0,1,3.232-2.578,7.618,7.618,0,0,1,1.18.1v-3.838a3.982,3.982,0,0,0-.9-.09,4.315,4.315,0,0,0-3.991,3.1h-.111v-2.766h-3.588m-38.849,0v14.662h3.984v-8.6a3.46,3.46,0,0,1,.187-1.2,2.7,2.7,0,0,1,2.421-1.879c1.608,0,2.359,1.359,2.359,3.32v8.356h3.981v-8.7a4.052,4.052,0,0,1,.166-1.188,2.511,2.511,0,0,1,2.39-1.786c1.63,0,2.412,1.335,2.412,3.644v8.033h3.983v-8.636c0-4.554-2.312-6.356-4.923-6.356a5.316,5.316,0,0,0-2.893.8,6.2,6.2,0,0,0-1.857,1.827h-.059a4.181,4.181,0,0,0-4.041-2.622,4.614,4.614,0,0,0-4.27,2.323h-.059v-1.992h-3.782" transform="translate(384.5 -343.396)" fill="#1e3f5b"/>
    <path id="Path_19490" data-name="Path 19490" d="M507.7,466.443h.06c.08,0,.131-.033.131-.082s-.048-.086-.122-.086c-.025,0-.051.005-.069.005v.163Zm-.009.4h-.212v-.69a1.665,1.665,0,0,1,.3-.026.466.466,0,0,1,.277.056.178.178,0,0,1,.075.151c0,.071-.065.131-.161.157v.009a.2.2,0,0,1,.143.177.7.7,0,0,0,.048.166h-.24a.458.458,0,0,1-.047-.148c-.014-.07-.046-.1-.117-.1h-.069v.252Zm.088-.915a.561.561,0,1,0,.551.559.54.54,0,0,0-.551-.559h0Zm.014-.187a.793.793,0,1,1-.006,0h0" transform="translate(-367.055 -440.581)" fill="#1e3f5b"/>
  </g>
</svg>
