<svg xmlns="http://www.w3.org/2000/svg" width="140.697" height="33.632" viewBox="0 0 140.697 33.632">
  <g id="aliexpress-ar21" transform="translate(0 0)">
    <g id="Group_1093" data-name="Group 1093" transform="translate(36.039 2.789)">
      <path id="Path_19476" data-name="Path 19476" d="M35.742,42.338V20.083H48.884v2.788H38.459v6.842h9.37V32.5h-9.37v6.981H49.611V42.27H35.756Zm27.689,0-4.521-5.9-4.5,5.9H51.225l6.185-7.894L50.9,26.269h3.584l4.45,6.114,4.521-6.114h3.514l-6.185,8.176,5.833,7.894ZM71,39.934V50.926H68.28v-16.4c0-4.193,3.187-8.645,8.176-8.645,5.037,0,8.831,3.187,8.831,8.433a8.335,8.335,0,0,1-8.222,8.645c-2.132,0-4.99-.937-6.068-3Zm11.431-5.646c0-3.584-2.318-5.716-6.442-5.505-1.979.071-5.037,1.523-4.778,6.644a5.47,5.47,0,0,0,5.576,4.778c3.256.024,5.646-1.838,5.646-5.9Zm5.18,8.036V26.267h2.717V28A7.163,7.163,0,0,1,95.9,25.939v2.926c-.328-.071-3.584-.467-5.576,3.794v9.755H87.609ZM96.649,34.3c0-4.637,3.326-8.433,7.894-8.433,5.716,0,7.825,3.794,7.825,8.645v1.336H99.625a5.109,5.109,0,0,0,5.434,4.592,6.091,6.091,0,0,0,4.45-1.923l1.8,1.838A9.047,9.047,0,0,1,104.942,43c-4.849-.071-8.293-3.654-8.293-8.714Zm7.684-5.716a4.891,4.891,0,0,0-4.708,4.708h9.886c0-2.367-1.7-4.708-5.177-4.708Z" transform="translate(-35.742 -20.083)" fill="#1e3f5b"/>
      <path id="Path_19477" data-name="Path 19477" d="M90.938,38.429l1.979-1.8a10.091,10.091,0,0,0,1.124,1.124,3.534,3.534,0,0,0,1.523.8c1.733.467,4.849.328,5.106-2.061.141-1.336-.867-2.061-1.979-2.545-1.452-.537-3.045-.727-4.521-1.405a4.042,4.042,0,0,1-2.717-3.842c0-4.849,6.91-5.646,10.026-3.4l1.593,1.523-1.979,1.593a4.5,4.5,0,0,0-4.053-1.8c-1.055,0-2.545.467-2.788,1.593-.4,1.593,1.405,2.2,2.6,2.545a16.08,16.08,0,0,1,4.708,1.523,4.87,4.87,0,0,1,1.664,5.786c-.8,2.2-3.187,3.045-5.318,3.116a8.154,8.154,0,0,1-6.513-2.46c-.117.047-.445-.283-.445-.283Z" transform="translate(-12.906 -18.423)" fill="#1e3f5b"/>
      <path id="Path_19478" data-name="Path 19478" d="M90.938,38.429l1.979-1.8a10.091,10.091,0,0,0,1.124,1.124,3.534,3.534,0,0,0,1.523.8c1.733.467,4.849.328,5.106-2.061.141-1.336-.867-2.061-1.979-2.545-1.452-.537-3.045-.727-4.521-1.405a4.042,4.042,0,0,1-2.717-3.842c0-4.849,6.91-5.646,10.026-3.4l1.593,1.523-1.979,1.593a4.5,4.5,0,0,0-4.053-1.8c-1.055,0-2.545.467-2.788,1.593-.4,1.593,1.405,2.2,2.6,2.545a16.08,16.08,0,0,1,4.708,1.523,4.87,4.87,0,0,1,1.664,5.786c-.8,2.2-3.187,3.045-5.318,3.116a8.154,8.154,0,0,1-6.513-2.46c-.117.047-.445-.283-.445-.283Z" transform="translate(1.104 -18.423)" fill="#1e3f5b"/>
    </g>
    <path id="Path_19479" data-name="Path 19479" d="M27.828,43.154l-1.979-5.318H15.085l-1.979,5.318H10.25L18.895,20.9h3.116l8.574,22.255Zm-7.5-19.046L16.277,35.142H24.71ZM32.349,43.154V20.9h2.788V43.154Zm6.981,0V27.426h2.788V43.168ZM44.765,22.3v-.283a4.062,4.062,0,0,1-3.912-3.912h-.42a4.062,4.062,0,0,1-3.912,3.912V22.3a4.062,4.062,0,0,1,3.912,3.912h.421A4.057,4.057,0,0,1,44.766,22.3Z" transform="translate(-10.25 -18.11)" fill="#1e3f5b"/>
  </g>
</svg>
