<svg xmlns="http://www.w3.org/2000/svg" width="100.635" height="30.296" viewBox="0 0 100.635 30.296">
  <g id="_59c160a99cfd27259f8694d2f1396e09" data-name="59c160a99cfd27259f8694d2f1396e09" transform="translate(0)">
    <path id="Path_19" data-name="Path 19" d="M180.2,184.373c-5.826,4.308-14.3,6.6-21.61,6.6a39.182,39.182,0,0,1-26.412-10.063c-.53-.494-.071-1.165.6-.777A52.461,52.461,0,0,0,179.355,183c.988-.388,1.8.671.847,1.377Z" transform="translate(-117.774 -160.679)" fill="#1e3f5b" fill-rule="evenodd"/>
    <path id="Path_20" data-name="Path 20" d="M543.11,172.894c-.741-.953-4.943-.459-6.815-.212-.565.071-.671-.424-.141-.777,3.355-2.366,8.828-1.66,9.463-.883s-.176,6.285-3.32,8.9c-.494.388-.953.176-.741-.353.706-1.766,2.3-5.685,1.554-6.674Z" transform="translate(-478.246 -151.99)" fill="#1e3f5b" fill-rule="evenodd"/>
    <path id="Path_21" data-name="Path 21" d="M58.158,3.32v-2.3a.537.537,0,0,1,.565-.565h10.24a.588.588,0,0,1,.6.565V2.966c0,.318-.282.741-.777,1.448l-5.3,7.556a11.506,11.506,0,0,1,5.826,1.235,1.052,1.052,0,0,1,.53.883v2.436c0,.353-.353.741-.741.53a11.681,11.681,0,0,0-10.8.035.554.554,0,0,1-.741-.53V14.23a2.639,2.639,0,0,1,.388-1.554l6.144-8.792H58.758a.588.588,0,0,1-.6-.564ZM20.835,17.549H17.728a.638.638,0,0,1-.565-.53V1.059a.588.588,0,0,1,.6-.565h2.9a.576.576,0,0,1,.565.53V3.107h.071A4.115,4.115,0,0,1,25.39.141c1.942,0,3.178.953,4.025,2.966A4.425,4.425,0,0,1,33.723.141a4.377,4.377,0,0,1,3.6,1.766c.988,1.342.777,3.284.777,5.014v10.1a.588.588,0,0,1-.6.565H34.429a.607.607,0,0,1-.565-.565V8.545a21.189,21.189,0,0,0-.071-3,1.638,1.638,0,0,0-1.836-1.377,2.079,2.079,0,0,0-1.871,1.307A9.784,9.784,0,0,0,29.8,8.545V17.02a.588.588,0,0,1-.6.565H26.1a.607.607,0,0,1-.565-.565V8.545c0-1.766.282-4.414-1.907-4.414-2.225,0-2.154,2.542-2.154,4.414V17.02a.62.62,0,0,1-.636.53ZM78.391.141c4.626,0,7.133,3.955,7.133,9,0,4.873-2.754,8.757-7.133,8.757-4.52,0-6.991-3.955-6.991-8.9C71.364,4.025,73.871.141,78.391.141Zm0,3.284c-2.3,0-2.436,3.143-2.436,5.085s-.035,6.109,2.4,6.109c2.4,0,2.542-3.355,2.542-5.4a15.449,15.449,0,0,0-.459-4.237A1.952,1.952,0,0,0,78.391,3.425Zm13.1,14.124H88.384a.607.607,0,0,1-.565-.565v-16a.61.61,0,0,1,.6-.53h2.9a.6.6,0,0,1,.565.459V3.354h.071C92.833,1.165,94.034.141,96.187.141a4.112,4.112,0,0,1,3.637,1.871c.812,1.271.812,3.425.812,4.979V17.055a.581.581,0,0,1-.6.494H96.929a.643.643,0,0,1-.565-.494V8.369c0-1.766.212-4.308-1.942-4.308a2.044,2.044,0,0,0-1.8,1.271,7.33,7.33,0,0,0-.494,3.037v8.616a.647.647,0,0,1-.636.565ZM50,9.922a6.316,6.316,0,0,1-.565,3.32,2.5,2.5,0,0,1-2.154,1.412c-1.2,0-1.907-.918-1.907-2.26,0-2.648,2.366-3.143,4.626-3.143Zm3.143,7.592a.638.638,0,0,1-.741.071A7.8,7.8,0,0,1,50.6,15.5a6.187,6.187,0,0,1-5.12,2.26c-2.613,0-4.661-1.624-4.661-4.838a5.285,5.285,0,0,1,3.32-5.085A22.056,22.056,0,0,1,50,6.744V6.356a3.815,3.815,0,0,0-.388-2.26,2.09,2.09,0,0,0-1.73-.812,2.351,2.351,0,0,0-2.507,1.871c-.071.282-.247.565-.53.565l-3-.318a.544.544,0,0,1-.459-.636C42.093,1.095,45.377,0,48.343,0a6.988,6.988,0,0,1,4.7,1.554c1.518,1.412,1.377,3.32,1.377,5.367v4.838a4.374,4.374,0,0,0,1.165,2.9c.212.282.247.636,0,.812-.671.53-1.8,1.518-2.436,2.048ZM9.218,9.922a6.316,6.316,0,0,1-.565,3.32A2.5,2.5,0,0,1,6.5,14.654c-1.2,0-1.907-.918-1.907-2.26,0-2.648,2.366-3.143,4.626-3.143Zm3.107,7.592a.638.638,0,0,1-.741.071,7.8,7.8,0,0,1-1.8-2.083,6.187,6.187,0,0,1-5.12,2.26C2.05,17.761,0,16.137,0,12.924a5.285,5.285,0,0,1,3.32-5.085A22.056,22.056,0,0,1,9.183,6.744V6.356A3.815,3.815,0,0,0,8.795,4.1a2.09,2.09,0,0,0-1.73-.812A2.351,2.351,0,0,0,4.558,5.155c-.071.282-.247.565-.53.565l-3-.318a.544.544,0,0,1-.459-.636C1.274,1.095,4.558,0,7.524,0a6.988,6.988,0,0,1,4.7,1.554C13.739,2.966,13.6,4.873,13.6,6.921v4.838a4.374,4.374,0,0,0,1.165,2.9c.212.282.247.636,0,.812-.671.53-1.8,1.518-2.436,2.048Z" transform="translate(-0.002)" fill="#1e3f5b" fill-rule="evenodd"/>
  </g>
</svg>
