<svg xmlns="http://www.w3.org/2000/svg" width="88.43" height="33.632" viewBox="0 0 88.43 33.632">
  <g id="Group_1093" data-name="Group 1093" transform="translate(0 0)">
    <g id="cc283d4160dac0c40399eae762971c12" transform="translate(0)">
      <path id="Path_18749" data-name="Path 18749" d="M11.3,25.2C.785,25.2.365,33.468.505,35.57c0,0-.561,9.529,10.51,9.529,9.529,0,9.95-6.026,9.95-6.026H16.621s-.841,3.223-5.605,3.083c-6.026,0-6.306-6.026-6.306-6.026H21.525C21.666,36.131,22.927,25.2,11.3,25.2ZM4.849,33.328S5.13,28,11.155,28s6.026,5.325,6.026,5.325Z" transform="translate(-0.36 -17.913)" fill="#1e3f5b"/>
      <path id="Path_18750" data-name="Path 18750" d="M.5,34.309S-.059,45.1,11.011,45.1c9.529,0,9.95-6.026,9.95-6.026H16.617s-.841,3.223-5.605,3.083c-6.026,0-6.306-6.026-6.306-6.026H21.522S22.783,25.2,11.152,25.2M4.846,33.328S5.126,28,11.152,28s6.026,5.325,6.026,5.325Z" transform="translate(-0.356 -17.913)" fill="#1e3f5b"/>
      <path id="Path_18751" data-name="Path 18751" d="M27.652,27.427c-5.325,0-7.287,3.083-7.287,3.083V20H15.6l.14,22.281s0,2.943-.14,4.344h4.064L19.8,44.1s1.962,3.083,7.567,3.083,10.09-3.5,10.23-9.809a9.636,9.636,0,0,0-9.95-9.95ZM26.39,44.383c-6.586.14-6.586-7.007-6.586-7.007s-.28-6.867,6.586-7.007c6.726-.14,6.586,7.147,6.586,7.147S32.977,44.243,26.39,44.383Z" transform="translate(5.705 -20)" fill="#1e3f5b"/>
      <path id="Path_18752" data-name="Path 18752" d="M27.692,27.427c-5.325,0-7.287,3.083-7.287,3.083V20L15.64,24.344V42.281s0,2.943-.14,4.344h4.064L19.7,44.1s1.962,3.083,7.567,3.083,10.09-3.5,10.23-9.809S32.877,27.427,27.692,27.427ZM26.431,44.383c-6.586.14-6.586-7.007-6.586-7.007s-.28-6.867,6.586-7.007c6.726-.14,6.586,7.147,6.586,7.147s0,6.726-6.586,6.867Z" transform="translate(5.665 -20)" fill="#1e3f5b"/>
      <path id="Path_18753" data-name="Path 18753" d="M50.686,40.135c0-2.943.14-5.465,0-7.287-.14-2.1.14-7.427-8.969-7.848,0,0-8.688-.14-9.669,5.465h4.484s.28-2.8,4.9-2.663c4.344.14,5.045,2.242,5.045,4.9,0,0-3.644.14-4.9.14-2.242,0-9.95.28-10.65,5.045-.841,5.605,4.064,7.287,7.988,7.287s6.166-1.121,7.848-3.223l.14,2.663h3.924c0-.14-.14-1.541-.14-4.484ZM39.616,42.517s-4.2,0-4.484-3.363c-.28-3.644,6.446-3.363,6.446-3.363h4.765c.14,0,.981,6.867-6.726,6.726Z" transform="translate(11.819 -17.993)" fill="#1e3f5b"/>
      <path id="Path_18754" data-name="Path 18754" d="M32.469,30.525h4.064s.28-2.8,4.9-2.663c4.344.14,5.045,2.242,5.045,4.9,0,0-3.643.14-4.9.14-2.242,0-9.95.28-10.65,5.045-.841,5.605,4.064,7.287,7.988,7.287s6.166-1.121,7.848-3.223l.14,2.663h3.924s-.14-1.4-.14-4.344.14-5.465,0-7.287c-.14-2.1.28-7.427-8.828-7.848M39.616,42.437s-4.2,0-4.484-3.363c-.28-3.644,6.446-3.363,6.446-3.363h4.765C46.482,35.71,47.323,42.577,39.616,42.437Z" transform="translate(11.819 -17.913)" fill="#1e3f5b"/>
      <path id="Path_18755" data-name="Path 18755" d="M43.4,26h4.9l7.147,14.294L62.6,26h4.484L54.05,51.224H49.286l3.784-7.007Z" transform="translate(16.863 -17.592)" fill="#1e3f5b"/>
      <path id="Path_18756" data-name="Path 18756" d="M44.8,29.724l2.943-3.644L54.89,40.234,62.037,26.08h4.484L53.488,51.3H48.724l3.784-7.147Zm23.262-2.943V26.22h-.14v-.14h.14V25.8h.28v.28h.28v.14h-.28v.561c0,.14,0,.14.14.14h.14v.14h-.28C68.2,27.2,68.062,27.061,68.062,26.781Zm.981-.7h.28v.14c.14-.14.14-.14.42-.14a.515.515,0,0,1,.42.14.515.515,0,0,1,.42-.14.372.372,0,0,1,.42.42v.7h-.28v-.561a.28.28,0,1,0-.561,0V27.2h-.28v-.561a.28.28,0,0,0-.561,0V27.2h-.28V26.08Z" transform="translate(17.425 -17.672)" fill="#1e3f5b"/>
      <path id="Path_18757" data-name="Path 18757" d="M16.8,30.042a5.586,5.586,0,0,1,.561,2.242H4.886a5.287,5.287,0,0,1,2.8-4.484A11.409,11.409,0,0,0,.682,31.724a11.609,11.609,0,0,0-.28,2.8s-.561,9.529,10.51,9.529c8.128,0,9.669-4.344,9.95-5.605v-.42H16.517s-.841,3.223-5.605,3.083c-5.886,0-6.166-6.026-6.166-6.026H20.3A16.432,16.432,0,0,0,16.8,30.042Z" transform="translate(-0.397 -16.869)" fill="#1e3f5b"/>
      <path id="Path_18758" data-name="Path 18758" d="M36.56,38.65A11.636,11.636,0,0,0,31.8,29.962a8.482,8.482,0,0,1,1.121,4.484s.14,6.867-6.586,6.867c-6.586.14-6.586-7.007-6.586-7.007s-.14-4.624,3.5-6.306a11.313,11.313,0,0,0-7.707,4.765v6.586s0,2.943-.14,4.344h4.064l.14-2.522s1.962,3.083,7.567,3.083C31.375,43.975,35.019,42.154,36.56,38.65Z" transform="translate(5.625 -16.789)" fill="#1e3f5b"/>
      <g id="Group_768" data-name="Group 768" transform="translate(42.511 11.071)">
        <path id="Path_18759" data-name="Path 18759" d="M50.726,38.971V32.8a11.369,11.369,0,0,0-5.045-4.2,4.422,4.422,0,0,1,.7,3.083s-3.644.14-4.9.14c-2.242,0-9.95.28-10.65,5.045-.841,5.605,4.064,7.287,7.988,7.287s6.166-1.121,7.848-3.223L46.8,43.6h3.924a41.421,41.421,0,0,0,0-4.624ZM39.656,41.353s-4.2,0-4.484-3.363c-.28-3.644,6.446-3.363,6.446-3.363h4.765c.14,0,.981,6.867-6.726,6.726ZM34.471,29.441h2.242a4.416,4.416,0,0,1,.981-1.541C36.433,28.18,35.312,29.441,34.471,29.441Z" transform="translate(-30.732 -27.9)" fill="#1e3f5b"/>
      </g>
      <path id="Path_18760" data-name="Path 18760" d="M53.167,50.3l9.109-17.657a18.724,18.724,0,0,0-2.8-2.943l-4.9,9.389L48.963,28.3A11.305,11.305,0,0,0,45.6,30.682l6.586,12.612L48.4,50.3Z" transform="translate(17.746 -16.669)" fill="#1e3f5b"/>
    </g>
  </g>
</svg>
