<svg xmlns="http://www.w3.org/2000/svg" width="24.712" height="18" viewBox="0 0 24.712 18">
  <path id="Path_18686" data-name="Path 18686" d="M21.625,4.71H4.087A3.591,3.591,0,0,0,.5,8.3V19.123A3.592,3.592,0,0,0,4.087,22.71H21.625a3.592,3.592,0,0,0,3.587-3.587V8.3A3.592,3.592,0,0,0,21.625,4.71ZM20.565,7.1l-1.1.869L13.6,12.6a1.2,1.2,0,0,1-1.483,0L6.455,8.13,5.15,7.1H20.565Zm1.06,13.217H4.087a1.2,1.2,0,0,1-1.2-1.2V8.373l7.74,6.11a3.585,3.585,0,0,0,4.448,0l7.74-6.108V19.123A1.2,1.2,0,0,1,21.625,20.319Z" transform="translate(-0.5 -4.71)"/>
</svg>
