<svg id="Layer_2" data-name="Layer 2" xmlns="http://www.w3.org/2000/svg" width="15" height="15.306" viewBox="0 0 15 15.306">
  <g id="Group_742" data-name="Group 742" transform="translate(0 0)">
    <path id="Path_18696" data-name="Path 18696" d="M137.9,108.326a6.559,6.559,0,0,0-.162-1.565H130.55v2.84h4.218a3.74,3.74,0,0,1-1.565,2.483l-.014.1,2.272,1.76.157.016a7.483,7.483,0,0,0,2.279-5.629" transform="translate(-122.897 -100.502)" fill="#4285f4"/>
    <path id="Path_18697" data-name="Path 18697" d="M20.762,162.509a7.294,7.294,0,0,0,5.068-1.854l-2.415-1.871a4.529,4.529,0,0,1-2.653.765,4.607,4.607,0,0,1-4.354-3.18l-.09.008-2.362,1.828-.031.086a7.648,7.648,0,0,0,6.837,4.218" transform="translate(-13.109 -147.203)" fill="#34a853"/>
    <path id="Path_18698" data-name="Path 18698" d="M3.3,76.3a4.712,4.712,0,0,1-.255-1.514,4.951,4.951,0,0,1,.247-1.514l0-.1L.895,71.312l-.078.037a7.637,7.637,0,0,0,0,6.871L3.3,76.3" transform="translate(0 -67.132)" fill="#fbbc05"/>
    <path id="Path_18699" data-name="Path 18699" d="M20.762,2.959A4.242,4.242,0,0,1,23.721,4.1l2.16-2.109A7.353,7.353,0,0,0,20.762,0a7.647,7.647,0,0,0-6.837,4.218L16.4,6.139a4.626,4.626,0,0,1,4.362-3.18" transform="translate(-13.109)" fill="#eb4335"/>
  </g>
</svg>
