<svg xmlns="http://www.w3.org/2000/svg" width="18.998" height="19.064" viewBox="0 0 18.998 19.064">
  <g id="Layer_51" data-name="Layer 51" transform="translate(-1.5 0.564)">
    <path id="Path_18691" data-name="Path 18691" d="M16.868,7.784a.161.161,0,0,0-.084,0H5.9a5.142,5.142,0,0,1,9.372-2.211.636.636,0,0,0,1.048-.72A6.428,6.428,0,0,0,4.571,7.9,3.49,3.49,0,0,0,2,11.268v5.676A3.053,3.053,0,0,0,5.053,20H16.945A3.053,3.053,0,0,0,20,16.944V11.268A3.484,3.484,0,0,0,16.868,7.784Zm1.845,9.16a1.768,1.768,0,0,1-1.768,1.768H5.053a1.768,1.768,0,0,1-1.768-1.768V11.268a2.2,2.2,0,0,1,2.2-2.2h11.03a2.2,2.2,0,0,1,2.2,2.2Z" transform="translate(0 -1.997)" stroke="#0f1a27" stroke-width="1"/>
    <path id="Path_18692" data-name="Path 18692" d="M14.571,16a2.571,2.571,0,1,0,2.571,2.571A2.571,2.571,0,0,0,14.571,16Zm0,3.857a1.286,1.286,0,1,1,1.286-1.286A1.286,1.286,0,0,1,14.571,19.857Z" transform="translate(-3.572 -6.999)" stroke="#0f1a27" stroke-width="1"/>
  </g>
</svg>
