<svg xmlns="http://www.w3.org/2000/svg" width="104.26" height="33.632" viewBox="0 0 104.26 33.632">
  <g id="_7e83c7b9eb3419b939a93859e587f532" data-name="7e83c7b9eb3419b939a93859e587f532" transform="translate(0 0)">
    <path id="Path_19481" data-name="Path 19481" d="M2.177,43.188A7.172,7.172,0,0,0,6.213,44.2c1.345,0,2.186-.673,2.186-1.682,0-.841-.5-1.513-2.018-2.354-1.85-1.009-3.2-2.522-3.2-4.54,0-3.531,3.027-5.886,7.231-5.886a8.768,8.768,0,0,1,4.2.841l-1.177,3.531a7.33,7.33,0,0,0-3.027-.673c-1.345,0-2.354.673-2.354,1.682,0,.841.673,1.345,1.85,2.018,1.85,1.177,3.531,2.691,3.531,4.709,0,3.868-3.2,6.222-7.567,6.054A9.449,9.449,0,0,1,1,46.72l1.177-3.531Zm12.276,4.036L19.33,22h4.877l-1.85,10.09v.168a6.791,6.791,0,0,1,5.213-2.522c2.522,0,4.036,1.682,4.036,4.54a20.8,20.8,0,0,1-.336,3.027l-1.85,9.922H24.543l1.85-9.753a8.187,8.187,0,0,0,.168-2.018c0-1.009-.5-1.85-1.513-1.85-1.513,0-3.2,1.85-3.868,5.045L19.5,47.056H14.453ZM49.6,36.63c0,6.054-3.868,11.267-9.753,11.267-4.372,0-6.726-3.027-6.726-6.895,0-6.054,3.868-11.267,9.922-11.267,4.372,0,6.558,3.363,6.558,6.895ZM38,41c0,1.85.673,3.2,2.354,3.2,2.691,0,4.036-4.709,4.036-7.735,0-1.513-.5-3.027-2.354-3.027C39.509,33.6,38,38.144,38,41ZM48.254,53.951l3.363-17.489c.336-2.018.841-4.372,1.009-6.054H57l-.336,1.682A6.7,6.7,0,0,1,61.875,29.4c3.531,0,5.045,3.2,5.045,6.39,0,6.054-3.868,11.94-9.585,11.94-.841.168-2.018-.5-2.522-.5h-.168L53.3,53.951H48.254Zm7.063-10.426a2.68,2.68,0,0,0,2.018.673c2.691,0,4.709-4.54,4.709-7.735,0-1.345-.5-2.691-2.018-2.691-1.682,0-3.363,2.018-3.868,5.045Zm12.108,3.7,3.363-16.816h5.045L72.469,47.224Zm6.39-18.5a2.654,2.654,0,0,1-2.354-2.859,2.876,2.876,0,0,1,2.859-3.027,2.619,2.619,0,0,1,2.522,2.691A3.282,3.282,0,0,1,73.814,28.726Zm2.859,18.5,2.691-13.453H77.009l.673-3.363h2.354L80.2,29.4a9.8,9.8,0,0,1,2.859-5.718A7.183,7.183,0,0,1,87.94,22a9.528,9.528,0,0,1,2.691.336L89.621,26.2a4.91,4.91,0,0,0-1.513-.336c-1.682,0-2.691,1.682-2.859,3.363l-.5,1.177h3.363l-.673,3.363H84.072L81.381,47.224ZM94.33,30.408l.841,7.735c.168,1.682.336,2.354.5,4.036a15.011,15.011,0,0,1,1.513-4.036l3.027-7.735h5.045l-6.054,12.78c-2.186,4.372-4.2,7.567-6.558,9.753a11.955,11.955,0,0,1-4.877,2.691l-1.345-4.2a14.273,14.273,0,0,0,2.859-1.345,7.655,7.655,0,0,0,2.691-3.027c.168-.168.168-.336.168-.673L89.117,30.408Z" transform="translate(-1 -22)" fill="#1e3f5b"/>
    <g id="Group_1094" data-name="Group 1094" transform="translate(0 0)">
      <path id="Path_19482" data-name="Path 19482" d="M10.417,29.735a8.768,8.768,0,0,1,4.2.841l-1.177,3.531a7.33,7.33,0,0,0-3.027-.673c-1.345,0-2.354.673-2.354,1.682,0,.841.673,1.345,1.85,2.018,1.85,1.177,3.531,2.691,3.531,4.709,0,3.868-3.2,6.222-7.567,6.054A9.449,9.449,0,0,1,1,46.72l1.177-3.531A7.172,7.172,0,0,0,6.213,44.2c1.345,0,2.186-.673,2.186-1.682,0-.841-.5-1.513-2.018-2.354-1.85-1.009-3.2-2.522-3.2-4.54m11.267,11.6,4.372-20.011,5.381-4.877-1.85,9.922a6.791,6.791,0,0,1,5.213-2.522c2.522,0,4.036,1.682,4.036,4.54a20.8,20.8,0,0,1-.336,3.027l-1.85,9.922H24.543l1.85-9.753a8.187,8.187,0,0,0,.168-2.018c0-1.009-.5-1.85-1.513-1.85-1.513,0-3.2,1.85-3.868,5.045L19.5,47.056H14.453ZM42.872,29.735c4.54,0,6.726,3.363,6.726,6.895,0,6.054-3.868,11.267-9.753,11.267-4.372,0-6.726-3.027-6.726-6.895M38,41c0,1.85.673,3.2,2.354,3.2,2.691,0,4.036-4.709,4.036-7.735,0-1.513-.5-3.027-2.354-3.027C39.509,33.6,38,38.144,38,41Zm19.17-10.594L56.83,32.09A6.7,6.7,0,0,1,62.043,29.4c3.531,0,5.045,3.2,5.045,6.39,0,6.054-3.868,11.94-9.585,11.94-1.009.168-2.186-.5-2.691-.5h-.168L53.3,53.951H48.422l3.363-17.825m3.531,7.4a2.681,2.681,0,0,0,2.018.673c2.691,0,4.709-4.54,4.709-7.735,0-1.345-.5-2.691-2.018-2.691-1.682,0-3.363,2.018-3.868,5.045Zm12.108,3.7,3.363-12.78,5.045-4.036L72.469,47.224Zm6.895-24.383a2.52,2.52,0,0,1,2.522,2.691,3.03,3.03,0,0,1-2.859,3.2,2.654,2.654,0,0,1-2.354-2.859M87.772,22a5.438,5.438,0,0,1,2.691.5l-1.009,3.868a4.91,4.91,0,0,0-1.513-.336c-1.682,0-2.691,1.682-2.859,3.363l-.336,1.009h3.363l-.673,3.363H84.072L81.381,47.224H76.673l2.691-13.453H77.009l.673-3.363h2.354L80.2,29.4M94.33,30.408l.841,7.567c.168,1.682.336,2.522.5,4.2a15.011,15.011,0,0,1,1.513-4.036l3.027-7.735h5.045l-6.054,12.78c-2.186,4.372-4.2,7.567-6.558,9.753a11.955,11.955,0,0,1-4.877,2.691l-1.345-4.2a14.273,14.273,0,0,0,2.859-1.345,7.655,7.655,0,0,0,2.691-3.027,1.26,1.26,0,0,0,.168-.841L90.967,34.108l3.363-3.7Z" transform="translate(-1 -22)" fill="#1e3f5b"/>
    </g>
  </g>
</svg>
