<svg id="Group_757" data-name="Group 757" xmlns="http://www.w3.org/2000/svg" xmlns:xlink="http://www.w3.org/1999/xlink" width="238.168" height="241.637" viewBox="0 0 238.168 241.637">
  <defs>
    <clipPath id="clip-path">
      <path id="Path_18729" data-name="Path 18729" d="M964.572,1267.238a8.971,8.971,0,0,0-8.965-8.968H889.465a8.971,8.971,0,0,0-8.965,8.968v93.433a8.972,8.972,0,0,0,8.965,8.969h66.143a8.972,8.972,0,0,0,8.965-8.969Z" transform="translate(-880.5 -1258.27)" fill="none"/>
    </clipPath>
    <clipPath id="clip-path-2">
      <circle id="Ellipse_326" data-name="Ellipse 326" cx="15.243" cy="15.243" r="15.243" transform="translate(0 0)" fill="none"/>
    </clipPath>
  </defs>
  <path id="Path_18604" data-name="Path 18604" d="M106.693,0c58.925,0,184.685,61.664,106.693,106.693S165.618,213.386,106.693,213.386A106.693,106.693,0,0,1,106.693,0Z" fill="rgba(194,247,80,0.46)"/>
  <g id="Group_639" data-name="Group 639" transform="translate(30.562 18.376)">
    <path id="Path_18564" data-name="Path 18564" d="M1005.411,1237.877a80.77,80.77,0,0,1-4.636,20.952c-.745,2.021-1.661,4.127-3.46,5.309-2.471,1.626-5.737.977-8.6.2l-.056-.016c-.261,1.766-.361,3.721-.555,5.659a5.071,5.071,0,0,1-.616,2.276,3.715,3.715,0,0,1-1.643,1.294l-.118.05a7.121,7.121,0,0,1-2.882.572,12.147,12.147,0,0,1-3.343-.627,40.772,40.772,0,0,1-10.884-5.137c2.133-15.16-2.954-26.188-1.672-30.37a30.5,30.5,0,0,1,2.871-5.9,79.85,79.85,0,0,1,4.775-7.9,18.262,18.262,0,0,1,6.914-5.981,16.087,16.087,0,0,1,10.423-.705c6.509,1.622,12.178,6.953,13.367,13.55A26.349,26.349,0,0,1,1005.411,1237.877Z" transform="translate(-923.318 -1171.69)" fill="#ffc5a6"/>
    <path id="Path_18565" data-name="Path 18565" d="M908.739,1149.345s-10.973-5.331-16.759,4.643-2.521,18.58.111,24.517,6.009,15.36,6.009,17.471a22.768,22.768,0,0,0,10.962-14.311s-6.658-2.276-4.049-8.751,11.846-2.361,9.4,12.455c0,0,3.282-9.329,5.731-12.266s4.437-3.327,11.107-2.2,18.337-2.777,18.337-17.181c0,0-7.169,1.738-12.7.322C928.8,1151.977,919,1140.249,908.739,1149.345Z" transform="translate(-852.729 -1107.348)" fill="#1e3f5b"/>
    <path id="Path_18566" data-name="Path 18566" d="M1116.88,1678.852a5.07,5.07,0,0,1-.617,2.277,3.712,3.712,0,0,1-1.643,1.294L1109,1668.69a32.615,32.615,0,0,0,8.44,4.5S1117.075,1676.909,1116.88,1678.852Z" transform="translate(-1052.096 -1580.563)" fill="#ff9f6b"/>
    <g id="Group_758" data-name="Group 758" transform="translate(108.718 0)">
      <g id="Group_758-2" data-name="Group 758" transform="translate(0 0)">
        <path id="Path_18727" data-name="Path 18727" d="M964.572,1267.238a8.971,8.971,0,0,0-8.965-8.968H889.465a8.971,8.971,0,0,0-8.965,8.968v93.433a8.972,8.972,0,0,0,8.965,8.969h66.143a8.972,8.972,0,0,0,8.965-8.969Z" transform="translate(-880.5 -1258.27)" fill="#fff" fill-rule="evenodd"/>
        <g id="Group_750" data-name="Group 750" transform="translate(0)" clip-path="url(#clip-path)">
          <path id="Path_18728" data-name="Path 18728" d="M835.843,1272.877v-12.862a1.983,1.983,0,0,0-2.154-1.744h-99.7a1.984,1.984,0,0,0-2.154,1.744v12.862a1.983,1.983,0,0,0,2.154,1.744h99.7A1.983,1.983,0,0,0,835.843,1272.877Z" transform="translate(-741.801 -1258.271)" fill="#3545d6" fill-rule="evenodd"/>
          <circle id="Ellipse_322" data-name="Ellipse 322" cx="2.215" cy="2.215" r="2.215" transform="translate(7.12 5.959)" fill="#fff"/>
          <circle id="Ellipse_323" data-name="Ellipse 323" cx="2.215" cy="2.215" r="2.215" transform="translate(14.139 5.959)" fill="#fff"/>
          <circle id="Ellipse_324" data-name="Ellipse 324" cx="2.215" cy="2.215" r="2.215" transform="translate(21.37 5.959)" fill="#fff"/>
        </g>
        <circle id="Ellipse_325" data-name="Ellipse 325" cx="15.243" cy="15.243" r="15.243" transform="translate(9.148 25.199)" fill="#afb9fa"/>
        <g id="Group_751" data-name="Group 751" transform="translate(9.148 25.199)" clip-path="url(#clip-path-2)">
          <path id="Path_18730" data-name="Path 18730" d="M991.156,1827.542c7.473-11.876,10.925-12.52,15.118-7.8s5.482,6.11,10.277,3.931,7.025.183,8.5,3.437-18.265,12.162-21.916,12.09S983.677,1839.417,991.156,1827.542Z" transform="translate(-991.033 -1804.738)" fill="#3545d6" fill-rule="evenodd"/>
        </g>
        <circle id="Ellipse_327" data-name="Ellipse 327" cx="5.356" cy="5.356" r="5.356" transform="translate(27.618 26.752)" fill="#3545d6"/>
        <g id="Group_752" data-name="Group 752" transform="translate(11.433 38.919)">
          <path id="Path_18731" data-name="Path 18731" d="M1089.025,2250.156a1.339,1.339,0,0,0-1.345-1.343H1063.52a1.338,1.338,0,0,0-1.34,1.343h0a1.337,1.337,0,0,0,1.34,1.343h24.159a1.338,1.338,0,0,0,1.345-1.343Z" transform="translate(-1061.431 -2221.314)" fill="#effeb9" fill-rule="evenodd"/>
          <path id="Path_18732" data-name="Path 18732" d="M1573.314,1842.75a4.049,4.049,0,0,0-4.051-4.047h-27.952a4.043,4.043,0,0,0-4.043,4.047h0a4.043,4.043,0,0,0,4.043,4.046h27.952a4.049,4.049,0,0,0,4.051-4.046Z" transform="translate(-1504.663 -1838.703)" fill="#6472e6" fill-rule="evenodd"/>
          <path id="Path_18733" data-name="Path 18733" d="M1076.92,2338.26a1.343,1.343,0,0,0-1.341-1.344h-23.232a1.343,1.343,0,0,0-1.341,1.344h0a1.343,1.343,0,0,0,1.341,1.343h23.233a1.343,1.343,0,0,0,1.341-1.343Zm31.737-.152a1.343,1.343,0,0,0-1.341-1.343h-23.232a1.343,1.343,0,0,0-1.341,1.343h0a1.344,1.344,0,0,0,1.341,1.343h23.233a1.343,1.343,0,0,0,1.341-1.343Zm0-13.607a1.334,1.334,0,0,0-.391-.95,1.354,1.354,0,0,0-.954-.394H1053.1a1.354,1.354,0,0,0-.954.394,1.333,1.333,0,0,0-.391.95h0a1.336,1.336,0,0,0,.391.95,1.356,1.356,0,0,0,.954.393h54.209a1.357,1.357,0,0,0,.954-.393,1.336,1.336,0,0,0,.391-.95Zm-31.736,18.743a1.343,1.343,0,0,0-1.341-1.343h-23.232a1.343,1.343,0,0,0-1.341,1.343h0a1.343,1.343,0,0,0,1.341,1.343h23.233a1.343,1.343,0,0,0,1.341-1.343Zm31.737-.151a1.343,1.343,0,0,0-1.341-1.343h-23.232a1.343,1.343,0,0,0-1.341,1.343h0a1.343,1.343,0,0,0,1.341,1.343h23.233a1.343,1.343,0,0,0,1.341-1.343Zm0-13.3a1.334,1.334,0,0,0-.391-.95,1.356,1.356,0,0,0-.954-.393H1053.1a1.353,1.353,0,0,0-.954.393,1.334,1.334,0,0,0-.391.95h0a1.335,1.335,0,0,0,.391.95,1.355,1.355,0,0,0,.954.393h54.209a1.355,1.355,0,0,0,.954-.393,1.336,1.336,0,0,0,.391-.95Zm-31.736,18.744a1.343,1.343,0,0,0-1.341-1.344h-23.232a1.344,1.344,0,0,0-1.341,1.344h0a1.343,1.343,0,0,0,1.341,1.343h23.233a1.343,1.343,0,0,0,1.341-1.343Zm31.737-.152a1.343,1.343,0,0,0-1.341-1.343h-23.232a1.343,1.343,0,0,0-1.341,1.343h0a1.343,1.343,0,0,0,1.341,1.343h23.233a1.343,1.343,0,0,0,1.341-1.343Z" transform="translate(-1051.006 -2290.674)" fill="#effeb9" fill-rule="evenodd"/>
        </g>
        <path id="Path_18739" data-name="Path 18739" d="M1682.7,1692.435a5.905,5.905,0,0,0-5.9-5.9h-33.571a5.9,5.9,0,0,0,0,11.807H1676.8A5.905,5.905,0,0,0,1682.7,1692.435Z" transform="translate(-1586.578 -1657.816)" fill="#c2f750" fill-rule="evenodd"/>
        <g id="Group_754" data-name="Group 754" transform="translate(56.278 31.998)">
          <path id="Path_18740" data-name="Path 18740" d="M1723.049,1735.53v.87a3.6,3.6,0,0,0-.636-.065,1.813,1.813,0,0,0-1.245.361,1.73,1.73,0,0,0-.453,1.22h.044a1.215,1.215,0,0,1,1.145-.59,1.43,1.43,0,0,1,1.1.433,1.661,1.661,0,0,1,.4,1.185,1.788,1.788,0,0,1-.465,1.3,1.693,1.693,0,0,1-1.272.479,1.767,1.767,0,0,1-1-.28,1.719,1.719,0,0,1-.642-.807,3.36,3.36,0,0,1-.216-1.273,3.151,3.151,0,0,1,.642-2.151,2.423,2.423,0,0,1,1.914-.73A4.389,4.389,0,0,1,1723.049,1735.53Zm-.6,3.441a.875.875,0,0,0-.2-.616.773.773,0,0,0-.586-.216.909.909,0,0,0-.625.222.653.653,0,0,0-.255.509,1.08,1.08,0,0,0,.238.716.846.846,0,0,0,1.212.064A.946.946,0,0,0,1722.451,1738.972Zm5.742-1V1738c.813.1,1.223.508,1.223,1.221a1.307,1.307,0,0,1-.526,1.106,2.432,2.432,0,0,1-1.5.4,3.574,3.574,0,0,1-1.46-.276v-.908a3.286,3.286,0,0,0,1.4.333,1.57,1.57,0,0,0,.83-.174.67.67,0,0,0-.033-1.107,2.175,2.175,0,0,0-.984-.167h-.432v-.8h.409a2.053,2.053,0,0,0,.9-.155.563.563,0,0,0,.31-.548.543.543,0,0,0-.188-.435.88.88,0,0,0-.575-.155,1.866,1.866,0,0,0-.564.089,2.586,2.586,0,0,0-.587.286l-.481-.73a3.16,3.16,0,0,1,1.687-.5,2.044,2.044,0,0,1,1.228.327,1.044,1.044,0,0,1,.448.891,1.2,1.2,0,0,1-.288.807A1.515,1.515,0,0,1,1728.193,1737.97Zm6.278-.008a2.437,2.437,0,0,1,.819.63,1.251,1.251,0,0,1-.238,1.751,2.052,2.052,0,0,1-1.289.384,2.134,2.134,0,0,1-1.322-.363,1.21,1.21,0,0,1-.47-1.006,1.318,1.318,0,0,1,.243-.783,1.863,1.863,0,0,1,.736-.578,1.49,1.49,0,0,1-.824-1.278,1.061,1.061,0,0,1,.459-.9,2.242,2.242,0,0,1,2.351,0,1.073,1.073,0,0,1,.453.909A1.369,1.369,0,0,1,1734.471,1737.962Zm-.708-.416a1.426,1.426,0,0,0,.536-.339.61.61,0,0,0,.15-.406.46.46,0,0,0-.188-.39.829.829,0,0,0-.509-.144.817.817,0,0,0-.492.14.458.458,0,0,0-.188.394.588.588,0,0,0,.155.4,1.614,1.614,0,0,0,.537.34Zm-.061.858q-.8.336-.8.892a.567.567,0,0,0,.221.476.972.972,0,0,0,.62.174,1.045,1.045,0,0,0,.636-.168.557.557,0,0,0,.221-.475.642.642,0,0,0-.182-.435,2.128,2.128,0,0,0-.614-.413Zm7.954,2.246H1738.1v-.752l1.322-1.308a8.053,8.053,0,0,0,.923-1.017,1.073,1.073,0,0,0,.188-.586.58.58,0,0,0-.182-.455.669.669,0,0,0-.476-.165,1.51,1.51,0,0,0-.586.119,2.927,2.927,0,0,0-.658.41l-.547-.684a5.578,5.578,0,0,1,.636-.429,2.346,2.346,0,0,1,.537-.214,2.413,2.413,0,0,1,.647-.083,1.677,1.677,0,0,1,1.161.393,1.287,1.287,0,0,1,.443,1,1.814,1.814,0,0,1-.144.709,2.539,2.539,0,0,1-.437.676,11.571,11.571,0,0,1-.9.905l-.6.556v.042h2.224Zm2.821.03v-.873a2.707,2.707,0,0,0,.636.068,1.823,1.823,0,0,0,1.261-.372,1.708,1.708,0,0,0,.437-1.239h-.044a1.119,1.119,0,0,1-.476.478,1.565,1.565,0,0,1-.686.134,1.389,1.389,0,0,1-1.09-.436,1.745,1.745,0,0,1-.4-1.22,1.613,1.613,0,0,1,1.731-1.736,1.659,1.659,0,0,1,1.361.613,2.669,2.669,0,0,1,.5,1.744,3.193,3.193,0,0,1-.642,2.148,2.389,2.389,0,0,1-1.908.737A4.3,4.3,0,0,1,1744.478,1740.681Zm.592-3.475c0,.572.26.858.774.858a.934.934,0,0,0,.636-.223.656.656,0,0,0,.255-.507,1.082,1.082,0,0,0-.238-.7.839.839,0,0,0-1.217-.071A.916.916,0,0,0,1745.07,1737.206Zm6.953,3.52a1.5,1.5,0,0,1-1.328-.662,3.483,3.483,0,0,1-.448-1.948,3.574,3.574,0,0,1,.442-1.981,1.5,1.5,0,0,1,1.333-.651c1.184,0,1.781.875,1.781,2.625a3.57,3.57,0,0,1-.437,1.991A1.531,1.531,0,0,1,1752.023,1740.726Zm0-.851a.628.628,0,0,0,.614-.414,4.985,4.985,0,0,0,0-2.715.63.63,0,0,0-.614-.411.61.61,0,0,0-.481.2,1.215,1.215,0,0,0-.249.582,6.037,6.037,0,0,0-.072,1,3.574,3.574,0,0,0,.188,1.344.64.64,0,0,0,.614.414Z" transform="translate(-1719.813 -1735.485)" fill="#20238c"/>
        </g>
      </g>
    </g>
    <path id="Path_18567" data-name="Path 18567" d="M2168.749,1451.471a62.73,62.73,0,0,0,7.852-8.341,24.12,24.12,0,0,0,3.237-5.121,4.943,4.943,0,0,0,.439-3.515,5.4,5.4,0,0,0-1.633-2.127,8.978,8.978,0,0,0-3.8-2.288c-2.527-.589-5.053.755-7.3,2.055a10.554,10.554,0,0,0-2.754,2.016,7.442,7.442,0,0,0-1.516,3.076c-.895,3.426-.244,7.063.722,10.473a7.206,7.206,0,0,0,1.532,3.165C2166.349,1451.715,2167.85,1452.265,2168.749,1451.471Z" transform="translate(-2006.063 -1364.439)" fill="#ffc5a6"/>
    <path id="Path_18570" data-name="Path 18570" d="M2110.708,1442.935a25.56,25.56,0,0,0-.361-9.424c-.644-2.3-1.871-4.442-2.132-6.813a16.55,16.55,0,0,1,.305-4.432,3.927,3.927,0,0,1,.472-1.532,1.355,1.355,0,0,1,1.366-.666,1.716,1.716,0,0,1,.861.627c1.216,1.449,1.627,3.387,2.394,5.114a12.908,12.908,0,0,0,3.559,4.682,10.7,10.7,0,0,1,2.643,2.482,5.835,5.835,0,0,1,.612,3.61,9.52,9.52,0,0,1-4.665,7.518,5.05,5.05,0,0,1-3.388.606C2111.23,1444.456,2110.185,1443.539,2110.708,1442.935Z" transform="translate(-1956.563 -1355.48)" fill="#ffc5a6"/>
    <path id="Path_18571" data-name="Path 18571" d="M5.98,28.091C7.129,18.812,17.147,12.654,18.707,3.43a2.1,2.1,0,0,0-.078-1.294,2.035,2.035,0,0,0-.833-.761C13.788-.98,8.346-.19,4.808,2.825A14.774,14.774,0,0,0,.071,15.375C.51,20.006,2.876,24.321,5.98,28.091Z" transform="translate(127.781 174.678) rotate(66)" fill="#ffc5a6"/>
    <circle id="Ellipse_329" data-name="Ellipse 329" cx="19.816" cy="19.816" r="19.816" transform="translate(118.487 165.905)" fill="#c2f750"/>
    <path id="Path_18747" data-name="Path 18747" d="M1927.139,2913.305l6.56,8.182a2.767,2.767,0,0,0,4.431-.153l12.252-17.656a2.767,2.767,0,0,0-4.547-3.154l-10.139,14.611-4.243-5.291a2.765,2.765,0,1,0-4.315,3.46Z" transform="translate(-1800.445 -2725.854)" fill="#7db128" fill-rule="evenodd"/>
    <path id="Path_18574" data-name="Path 18574" d="M17.3,19.212c-1.777-.872-3.66-1.843-4.631-3.571-1.022-1.816-.794-4.048-.538-6.12q.416-3.4.838-6.791A2.908,2.908,0,0,0,12.726.7,2.473,2.473,0,0,0,10.033.148C7.378.869,5.329,2.98,3.707,5.2,1.491,8.239-.235,11.9.17,15.641c.238,2.233,1.232,4.371,1.216,6.614C1.375,24.176.631,26.009.231,27.891s-.383,4.043.883,5.486a4.277,4.277,0,0,0,5.77.317,8.8,8.8,0,0,0,1.471-1.788C11.254,27.7,14.148,23.494,17.3,19.212Z" transform="translate(129.548 166.386) rotate(66)" fill="#ffc5a6"/>
    <path id="Path_18575" data-name="Path 18575" d="M680.061,1617.106a39.505,39.505,0,0,0-19.491-.705,218.1,218.1,0,0,1-8.985,31c-1.849,4.964-4.2,10.235-8.852,12.773-5.858,3.193-13.127.9-19.13-2.016-15.554-7.547-29.331-18.986-45.936-23.806-2.488-.722-3.888,2.766-6.43,2.337-8.669-1.443-8.852-7.224-25.267-5.153a33.835,33.835,0,0,0-15.154,4.4c-6.419,4.115-9.079,12.051-10.973,19.442a229.389,229.389,0,0,0-5.353,27.488,198.338,198.338,0,0,1-2.9,33.208,376.033,376.033,0,0,0,45.686,4.365c8.835.3,17.765.288,26.411-1.555,2.432-13.983,4.859-27.96,7.463-41.71q18.609,3.582,37.217,7.17c8.419,1.621,17.743,3.1,25.078-1.339,6.07-3.67,9.3-10.556,11.99-17.12C671.926,1650.071,675.847,1634.188,680.061,1617.106Z" transform="translate(-511.3 -1532.407)" fill="#3545d6"/>
    <path id="Path_18576" data-name="Path 18576" d="M1040.716,1817.656a109.061,109.061,0,0,1,3.11,12.65q-3.341,30.529-8.835,60.762a1.944,1.944,0,0,0,.472,2.066q2.216,2.7,4.438,5.4,2.283-2.34,4.565-4.675a5.058,5.058,0,0,0,1.226-1.661,4.893,4.893,0,0,0,.223-1.639q.74-29.07,1.488-58.141a38.12,38.12,0,0,1,.417-5.57c.366-2.1,1.094-4.138,1.249-6.264a23.9,23.9,0,0,0-.894-7.041.766.766,0,0,0-1.022-.722c-1.249.1-2.5.205-3.754.311a1.482,1.482,0,0,0-1.71,1.288C1041.394,1815.452,1041.106,1816.473,1040.716,1817.656Z" transform="translate(-985.017 -1711.027)" fill="#1a249a"/>
    <path id="Path_18577" data-name="Path 18577" d="M988.77,1744.726a6.914,6.914,0,0,1-4.609,2.87,53.377,53.377,0,0,1-14.449-6.836,30.61,30.61,0,0,0-2.149,4.054,80.176,80.176,0,0,0,12.406,14.311,43.553,43.553,0,0,1,4.292-9.479,38.865,38.865,0,0,1,4.82,9.779C990.4,1754.215,990.57,1750.2,988.77,1744.726Z" transform="translate(-924.064 -1645.803)" fill="#3545d6"/>
    <path id="Path_18602" data-name="Path 18602" d="M1035.341,2301.331q-1.375,8.237-2.754,16.476-.684,4.082-1.367,8.168-.341,2.041-.682,4.087c-.223,1.321-.544,2.671-.656,4.009-.111,1.361.934,2.254,1.767,3.188,1.071,1.2,2.143,2.416,3.215,3.62.472.533,1.255-.255.777-.789l-2.665-3c-.789-.889-2.127-1.882-1.96-3.177.338-2.6.866-5.2,1.3-7.786q1.308-7.828,2.621-15.659.742-4.422,1.483-8.852C1036.53,2300.92,1035.458,2300.625,1035.341,2301.331Z" transform="translate(-980.469 -2152.88)" fill="#1e3f5b"/>
    <path id="Path_18603" data-name="Path 18603" d="M1101.993,2411.448c.972-.983,1.949-1.966,2.921-2.949a4.265,4.265,0,0,0,1.638-2.62c.11-1.333-.045-2.727-.067-4.065s-.044-2.677-.061-4.016q-.091-8.1.095-16.2a.556.556,0,0,0-1.111-.005q-.175,7.679-.1,15.365.033,3.806.133,7.613a3.645,3.645,0,0,1-.2,1.944,8.38,8.38,0,0,1-1.305,1.393c-.911.916-1.816,1.833-2.727,2.749A.556.556,0,0,0,1101.993,2411.448Z" transform="translate(-1044.894 -2225.42)" fill="#1e3f5b"/>
    <path id="Path_18578" data-name="Path 18578" d="M102.485,2.488A97.317,97.317,0,0,0,80.745,0q-3.732,10.461-7.459,20.93a55.754,55.754,0,0,1-5.17,11.628c-2.3,3.577-5.564,6.692-9.612,8-3.932,1.266-8.186.727-12.272.111Q35.1,38.974,24.091,36.595c-4.9-1.061-10.367-2.138-14.638.483A15.407,15.407,0,0,0,6.01,40.166,23.766,23.766,0,0,0,.363,50.5,13.572,13.572,0,0,0,2.606,61.8c3.11,3.892,8.385,5.2,13.277,6.153C31.5,71,47.386,72.94,63.3,72.59c5.426-.121,11.168-.616,15.566-3.793a23.86,23.86,0,0,0,6.625-8.307c3.588-6.663,5.921-13.917,8.086-21.163A308.034,308.034,0,0,0,102.485,2.488Z" transform="translate(70.468 100.095) rotate(66)" fill="#3545d6"/>
    <path id="Path_18597" data-name="Path 18597" d="M968.773,1799.2a98.421,98.421,0,0,0,11.084,13.072.559.559,0,0,0,.872-.122,78.576,78.576,0,0,1,4.925-9.873h-.961q2.624,4.914,5.253,9.835a.562.562,0,0,0,1.017-.134,29.146,29.146,0,0,0,.388-11.179c-.111-.7-1.188-.422-1.077.278a27.645,27.645,0,0,1-.383,10.612l1.016-.133q-2.624-4.914-5.253-9.835a.559.559,0,0,0-.961,0,79.028,79.028,0,0,0-4.925,9.874c.289-.039.583-.078.872-.122a96.9,96.9,0,0,1-10.9-12.833C969.329,1798.061,968.362,1798.613,968.773,1799.2Z" transform="translate(-925.069 -1697.974)" fill="#1e3f5b"/>
    <path id="Path_18598" data-name="Path 18598" d="M.534,1.112C12.212,1.784,22.513,8.2,33.575,11.335a109.271,109.271,0,0,0,18.164,3.509,65.043,65.043,0,0,0,9.4.367,26.68,26.68,0,0,0,8.64-1.427c4.954-1.928,7.574-6.708,9.751-11.268.305-.639-.655-1.2-.966-.55-1.883,3.943-4.093,8.318-8.191,10.351a21.57,21.57,0,0,1-8.424,1.744,62.011,62.011,0,0,1-9.134-.223,106.91,106.91,0,0,1-18.181-3.36A160.267,160.267,0,0,1,18.592,4.671C12.784,2.394,6.82.367.545,0-.177-.043-.183,1.068.534,1.112Z" transform="translate(43.217 102.807) rotate(66)" fill="#1e3f5b"/>
    <path id="Path_18599" data-name="Path 18599" d="M1104.942,1910.508c.327,1.355.66,2.715.988,4.07a.556.556,0,1,0,1.077-.278c-.327-1.355-.66-2.715-.989-4.071a.556.556,0,1,0-1.076.278Z" transform="translate(-1048.409 -1798.836)" fill="#1e3f5b"/>
    <path id="Path_18600" data-name="Path 18600" d="M1163.473,1914.351a21.72,21.72,0,0,0-1.177,5.092.56.56,0,0,0,.55.561.572.572,0,0,0,.561-.549,20.719,20.719,0,0,1,1.138-4.809.556.556,0,0,0-1.072-.295Z" transform="translate(-1100.339 -1802.574)" fill="#1e3f5b"/>
    <path id="Path_18601" data-name="Path 18601" d="M.387,15c15.393,5.064,31.159,9.285,47.3,11.1a136.447,136.447,0,0,0,24.179.661,51.64,51.64,0,0,0,11.667-1.633,18.9,18.9,0,0,0,8.441-5.519C96.778,14.3,98.493,7.249,100.843.669c.239-.672-.833-.955-1.072-.289-2.022,5.659-3.5,11.789-7.135,16.681a19.428,19.428,0,0,1-7.652,6.364c-3.577,1.561-7.7,1.805-11.54,2.111-15.777,1.255-31.625-.7-46.991-4.265C17.74,19.255,9.16,16.722.67,13.929,0,13.707-.291,14.779.387,15Z" transform="translate(24.691 110.592) rotate(66)" fill="#1e3f5b"/>
  </g>
</svg>
