<svg xmlns="http://www.w3.org/2000/svg" width="150.233" height="30.311" viewBox="0 0 150.233 30.311">
  <g id="WooCommerce" transform="translate(0 0)">
    <path id="Path_19533" data-name="Path 19533" d="M108.155,169H66.723A4.727,4.727,0,0,0,62,173.753v15.816a4.752,4.752,0,0,0,4.753,4.753h19.6l8.979,4.988-2.025-4.988h14.847a4.752,4.752,0,0,0,4.753-4.753V173.753A4.771,4.771,0,0,0,108.155,169Zm-42.312,3.668a1.7,1.7,0,0,0-1.32.646,1.887,1.887,0,0,0-.323,1.408q1.849,11.708,3.433,15.786c.411,1,.88,1.467,1.467,1.438.88-.059,1.907-1.262,3.14-3.609q.968-1.981,2.993-5.986a20.425,20.425,0,0,0,4.607,8.861,2.042,2.042,0,0,0,1.643.763,1.357,1.357,0,0,0,1.115-.763,2.587,2.587,0,0,0,.264-1.379,38.6,38.6,0,0,1,.587-7.922,24.5,24.5,0,0,1,2.025-7.512,1.663,1.663,0,0,0,.205-1,1.594,1.594,0,0,0-.646-1.174,1.787,1.787,0,0,0-1.32-.411,1.568,1.568,0,0,0-1.379.91c-1.291,2.347-2.2,6.162-2.758,11.444a37.133,37.133,0,0,1-1.966-7.1c-.235-1.232-.792-1.819-1.7-1.761a1.964,1.964,0,0,0-1.555,1.262L69.8,185.256c-.763-3.022-1.467-6.69-2.113-11.062A1.565,1.565,0,0,0,65.843,172.668Zm40.111,1.5a4.834,4.834,0,0,1,3.316,2.406,7.75,7.75,0,0,1,1,4.108,11.145,11.145,0,0,1-1.614,5.9c-1.262,2.083-2.876,3.11-4.9,3.11a4.973,4.973,0,0,1-1.115-.117,4.834,4.834,0,0,1-3.316-2.406,7.966,7.966,0,0,1-1-4.108,10.971,10.971,0,0,1,1.614-5.868,5.6,5.6,0,0,1,4.9-3.11A3.793,3.793,0,0,1,105.954,174.164Zm-.88,11.238a5.508,5.508,0,0,0,1.584-3.081,8.412,8.412,0,0,0,.147-1.526,5.023,5.023,0,0,0-.381-1.907c-.323-.822-.734-1.262-1.232-1.35-.763-.147-1.467.264-2.171,1.291a7.131,7.131,0,0,0-1.115,2.465,6.416,6.416,0,0,0-.147,1.526,5.023,5.023,0,0,0,.381,1.907c.323.822.734,1.262,1.232,1.35A1.959,1.959,0,0,0,105.074,185.4Zm-8.861-8.832a4.787,4.787,0,0,0-3.316-2.406,4.973,4.973,0,0,0-1.115-.117c-2,0-3.609,1.027-4.9,3.11a10.971,10.971,0,0,0-1.614,5.868,7.893,7.893,0,0,0,1,4.108,4.727,4.727,0,0,0,3.316,2.406,4.973,4.973,0,0,0,1.115.117c2.025,0,3.638-1.027,4.9-3.11a11.145,11.145,0,0,0,1.614-5.9A7.713,7.713,0,0,0,96.212,176.57ZM93.6,182.321a5.508,5.508,0,0,1-1.584,3.081,2.117,2.117,0,0,1-1.673.675c-.5-.117-.91-.528-1.232-1.35a5.023,5.023,0,0,1-.381-1.907,6.568,6.568,0,0,1,.147-1.526,6.191,6.191,0,0,1,1.115-2.465c.675-1.027,1.408-1.438,2.171-1.291.5.117.91.528,1.232,1.35a5.023,5.023,0,0,1,.381,1.907A8.362,8.362,0,0,1,93.6,182.321Z" transform="translate(-61.999 -169)" fill="#1e3f5b" fill-rule="evenodd"/>
    <path id="Path_19534" data-name="Path 19534" d="M248.383,189.254a6.985,6.985,0,0,0-2.083,5.252,7.554,7.554,0,0,0,2.054,5.516,7.2,7.2,0,0,0,5.4,2.113,8.847,8.847,0,0,0,2.171-.323v-3.374a7.19,7.19,0,0,1-1.907.323,3.39,3.39,0,0,1-2.641-1.115,4.37,4.37,0,0,1-1-3.022,4.289,4.289,0,0,1,.968-2.9,3.128,3.128,0,0,1,2.465-1.144,8.019,8.019,0,0,1,2.083.323v-3.374a9.176,9.176,0,0,0-2.259-.264A6.855,6.855,0,0,0,248.383,189.254ZM262.82,187.2a5.62,5.62,0,0,0-4.489,1.907,7.955,7.955,0,0,0-1.614,5.34,8.772,8.772,0,0,0,1.614,5.692,6.38,6.38,0,0,0,9.214,0,8.668,8.668,0,0,0,1.614-5.546,8.272,8.272,0,0,0-1.614-5.487A5.941,5.941,0,0,0,262.82,187.2Zm1.643,10.8a1.855,1.855,0,0,1-1.643.88,1.67,1.67,0,0,1-1.526-.88,7.758,7.758,0,0,1-.528-3.521c0-2.729.675-4.079,2.083-4.079q2.2,0,2.2,4.137A6.989,6.989,0,0,1,264.463,198Zm14.965-10.417-.763,3.169c-.176.822-.381,1.643-.528,2.494l-.411,2.2c-.381-2.2-.939-4.812-1.614-7.893H271.3l-1.819,14.172h3.609l.968-9.771,2.465,9.771H279.1l2.377-9.742,1.027,9.742h3.785l-1.907-14.172h-4.959Zm17.312,0-.763,3.169c-.176.822-.381,1.643-.528,2.494l-.411,2.2c-.381-2.2-.939-4.812-1.614-7.893h-4.812l-1.819,14.172H290.4l.968-9.771,2.465,9.771h2.582l2.347-9.742,1.027,9.742h3.785l-1.907-14.172h-4.93Zm11.8,8.568h3.4v-2.934h-3.4V190.6h3.9v-3.022h-7.746v14.172h7.746v-3.022h-3.932v-2.582Zm14.7-2.23a3.962,3.962,0,0,0,.616-2,3.776,3.776,0,0,0-1.555-3.169,7.042,7.042,0,0,0-4.255-1.174h-4.46v14.172H317.4V195.3h.059l3.11,6.455h4.049l-3.081-6.4A3.722,3.722,0,0,0,323.236,193.919Zm-5.868-.235V190.31a3.637,3.637,0,0,1,1.966.469,1.672,1.672,0,0,1,.587,1.408Q319.876,193.641,317.367,193.685Zm8.715-4.431A7.1,7.1,0,0,0,324,194.506a7.554,7.554,0,0,0,2.054,5.516,7.2,7.2,0,0,0,5.4,2.113,8.848,8.848,0,0,0,2.171-.323v-3.374a7.19,7.19,0,0,1-1.907.323,3.39,3.39,0,0,1-2.641-1.115,4.37,4.37,0,0,1-1-3.022,4.289,4.289,0,0,1,.968-2.9,3.128,3.128,0,0,1,2.465-1.144,8.02,8.02,0,0,1,2.083.323v-3.374a9.176,9.176,0,0,0-2.259-.264A6.939,6.939,0,0,0,326.082,189.254Zm12.412,9.448V196.12h3.4v-2.934h-3.4v-2.611h3.932v-3.022h-7.746v14.172h7.776V198.7Z" transform="translate(-192.222 -181.86)" fill="#1e3f5b" fill-rule="evenodd"/>
  </g>
</svg>
