<svg xmlns="http://www.w3.org/2000/svg" width="19.386" height="18.5" viewBox="0 0 19.386 18.5">
  <path id="Path_18748" data-name="Path 18748" d="M25.815,28.108a5.054,5.054,0,1,0-5.04-5.068A5.041,5.041,0,0,0,25.815,28.108Zm0-8.778A3.711,3.711,0,1,1,22.1,23.068,3.711,3.711,0,0,1,25.815,19.329ZM17.065,36H34.622a.674.674,0,0,0,.665-.665,6.358,6.358,0,0,0-6.342-6.342h-6.2A6.358,6.358,0,0,0,16.4,35.335.674.674,0,0,0,17.065,36Zm5.677-5.677h6.2A4.994,4.994,0,0,1,33.9,34.671H17.785a4.994,4.994,0,0,1,4.957-4.348Z" transform="translate(-16.15 -17.75)" fill="#0f1a27" stroke="#0f1a27" stroke-width="0.5"/>
</svg>
