<?xml version="1.0" encoding="utf-8"?>
<!-- Generator: Adobe Illustrator 26.0.1, SVG Export Plug-In . SVG Version: 6.00 Build 0)  -->
<svg version="1.1" id="Layer_1" xmlns="http://www.w3.org/2000/svg" xmlns:xlink="http://www.w3.org/1999/xlink" x="0px" y="0px"
	 viewBox="0 0 20 20" style="enable-background:new 0 0 20 20;" xml:space="preserve">
<style type="text/css">
	.st0{fill:#1D3F5B;}
	.st1{fill:url(#SVGID_1_);}
	.st2{fill:url(#SVGID_00000055709220852829015320000007659154074023381407_);}
</style>
<g>
	<g>
		<path class="st0" d="M1.05,10.15c0,0.15,0.07,0.25,0.58,0.45C2.31,10.84,3,11.25,3,12.02c0,0.67-0.55,1.3-1.38,1.3
			c-0.69,0-1.2-0.3-1.62-0.95l0.67-0.52c0.19,0.28,0.56,0.57,0.95,0.55c0.25-0.01,0.41-0.17,0.41-0.34
			c-0.01-0.19-0.34-0.42-0.82-0.6c-0.63-0.24-1.09-0.59-1.09-1.32c0-0.55,0.48-1.17,1.29-1.17c0.45,0,0.95,0.03,1.53,0.7l-0.72,0.54
			C1.9,9.9,1.64,9.87,1.41,9.87C1.22,9.87,1.05,10.02,1.05,10.15z"/>
		<path class="st0" d="M15.2,9.02h0.93v2.7c0,1.07-0.91,1.6-1.69,1.6c-0.8,0-1.7-0.53-1.7-1.6v-2.7h0.93v2.54
			c0,0.48,0.33,0.78,0.77,0.78c0.42,0,0.76-0.3,0.76-0.78V9.02z"/>
		<path class="st0" d="M17.91,13.25V9.94h-1.15V9.02H20v0.92h-1.16v3.31H17.91z"/>
	</g>
	<linearGradient id="SVGID_1_" gradientUnits="userSpaceOnUse" x1="5.3123" y1="13.6043" x2="10.2056" y2="8.711">
		<stop  offset="0" style="stop-color:#3546D6"/>
		<stop  offset="1" style="stop-color:#C2F74F"/>
	</linearGradient>
	<path class="st1" d="M11.11,9.62c-0.68-0.68-2.03-1.03-3.16,0.04C7.88,9.72,7.82,9.78,7.76,9.85C7.7,9.79,7.63,9.73,7.56,9.67
		C7.13,9.31,6.64,9.04,6.07,9C5.48,8.96,4.89,9.16,4.46,9.57c-0.85,0.8-0.93,2.1-0.17,3c0.35,0.42,0.8,0.67,1.35,0.75
		c0.86,0.12,1.56-0.2,2.11-0.84c1.21,1.08,2.49,1.14,3.41,0.18C11.95,11.81,11.93,10.43,11.11,9.62z M10.57,12.08
		c-0.33,0.36-0.82,0.53-1.3,0.42c-0.45-0.11-0.72-0.45-1.02-0.76c-0.33-0.34-0.64-0.35-0.97-0.01c-0.13,0.13-0.25,0.27-0.38,0.4
		c-0.55,0.54-1.43,0.54-1.95-0.04c-0.26-0.29-0.37-0.67-0.34-1.05c0.03-0.36,0.19-0.71,0.48-0.95C5.42,9.82,5.9,9.71,6.3,9.85
		c0.4,0.14,0.7,0.48,1,0.77c0.32,0.3,0.62,0.29,0.93-0.01c0.47-0.46,0.9-0.94,1.62-0.79C10.87,10.03,11.27,11.32,10.57,12.08z
		 M6.39,11.15c0,0.28-0.23,0.51-0.51,0.51s-0.51-0.23-0.51-0.51s0.23-0.51,0.51-0.51S6.39,10.87,6.39,11.15z M10.06,11.15
		c0,0.28-0.23,0.51-0.51,0.51s-0.51-0.23-0.51-0.51s0.23-0.51,0.51-0.51S10.06,10.87,10.06,11.15z M8.21,7.15
		c0,0.17-0.09,0.33-0.24,0.42v1.37L7.95,8.95C7.89,9.01,7.83,9.07,7.77,9.14L7.73,9.18L7.69,9.14c-0.07-0.06-0.13-0.12-0.2-0.17
		L7.47,8.95V7.56C7.32,7.48,7.24,7.32,7.24,7.15c0-0.27,0.22-0.49,0.49-0.49C7.99,6.66,8.21,6.88,8.21,7.15z"/>
</g>
</svg>
