<svg xmlns="http://www.w3.org/2000/svg" width="26.636" height="26.278" viewBox="0 0 26.636 26.278">
  <path id="Path_19542" data-name="Path 19542" d="M20.784,2.51c-4.061-.807-4.508-1.258-5.32-5.318a.807.807,0,0,0-.791-.647.807.807,0,0,0-.791.647C13.07,1.251,12.623,1.7,8.562,2.51a.807.807,0,0,0,0,1.582C12.623,4.9,13.07,5.35,13.88,9.411a.807.807,0,0,0,1.582,0c.807-4.061,1.259-4.506,5.32-5.318a.807.807,0,0,0,0-1.582ZM14.672,6.165A4.616,4.616,0,0,0,11.811,3.3,4.616,4.616,0,0,0,14.672.439,4.619,4.619,0,0,0,17.536,3.3,4.619,4.619,0,0,0,14.672,6.165Zm10.083,3.2a.807.807,0,0,0,1.019.1c3.437-2.3,4.083-2.3,7.522,0a.807.807,0,0,0,1.119-1.119c-2.3-3.441-2.3-4.078,0-7.524A.807.807,0,0,0,33.3-.294c-3.439,2.3-4.085,2.3-7.522,0A.807.807,0,0,0,24.654.824c2.3,3.445,2.3,4.077,0,7.522a.807.807,0,0,0,.1,1.02Zm2.754-6.805a4.621,4.621,0,0,0,4.049,0,4.618,4.618,0,0,0,0,4.048,4.621,4.621,0,0,0-4.049,0,4.619,4.619,0,0,0,0-4.048ZM18.136,22.586a.807.807,0,0,0,1.019.1c3.022-2.015,3.578-2.015,6.6,0a.807.807,0,0,0,1.119-1.119c-2.015-3.022-2.015-3.578,0-6.6a.807.807,0,0,0-1.119-1.119c-3.019,2.015-3.575,2.015-6.6,0a.807.807,0,0,0-1.119,1.119c2.015,3.021,2.015,3.576,0,6.6a.807.807,0,0,0,.1,1.017Zm2.683-5.953a4.07,4.07,0,0,0,3.268,0,4.069,4.069,0,0,0,0,3.268,4.059,4.059,0,0,0-3.269,0,4.069,4.069,0,0,0,0-3.266Z" transform="translate(-7.915 3.455)" fill="#3545d6"/>
</svg>
