<svg xmlns="http://www.w3.org/2000/svg" width="65.955" height="65.955" viewBox="0 0 65.955 65.955">
  <g id="_0c8959a044118a565b6cf241c18b0e9f" data-name="0c8959a044118a565b6cf241c18b0e9f" transform="translate(-4 -4)">
    <path id="Path_19887" data-name="Path 19887" d="M69.955,13.422A9.42,9.42,0,0,0,60.533,4H13.422A9.42,9.42,0,0,0,4,13.422V60.533a9.42,9.42,0,0,0,9.422,9.422H60.533a9.42,9.42,0,0,0,9.422-9.422V13.422Z" fill="#070201" fill-rule="evenodd"/>
    <path id="Path_19888" data-name="Path 19888" d="M52.166,29.787a1.144,1.144,0,0,1-.436.907,1.41,1.41,0,0,1-.978.247c-2.191-.059-5.618-.813-7.232-2.356V43.355A12.315,12.315,0,0,1,31.2,55.674H29.93a12.3,12.3,0,0,1-7.75-2.815,12.259,12.259,0,0,0,5.453,1.331h1.272A12.315,12.315,0,0,0,41.225,41.871V27.1c1.614,1.531,5.041,2.3,7.232,2.356a1.473,1.473,0,0,0,.978-.247,1.18,1.18,0,0,0,.436-.907V22.39c.448.13.907.236,1.366.342a1.171,1.171,0,0,1,.93,1.142v5.912ZM29.105,35a1.166,1.166,0,0,1-.836.342A5.873,5.873,0,0,0,26.3,46.758a5.873,5.873,0,0,1,4.264-9.929,1.166,1.166,0,0,0,1.178-1.178V32.119a1.238,1.238,0,0,0-.342-.836,1.146,1.146,0,0,0-.836-.342H29.93c-.165,0-.318.047-.483.047v3.18A1.216,1.216,0,0,1,29.105,35Zm16.1-14.946a8.964,8.964,0,0,1-2.391-3.639,1.208,1.208,0,0,0-1.107-.789h-.872a8.544,8.544,0,0,0,4.37,4.417Z" transform="translate(3.232 2.067)" fill="#fe2c55" fill-rule="evenodd"/>
    <path id="Path_19889" data-name="Path 19889" d="M22.261,52.294a12.276,12.276,0,0,0,.966.789A12,12,0,0,1,16.36,42.095V42A12.315,12.315,0,0,1,28.679,29.681h.636a1.216,1.216,0,0,1,.836.342,1.166,1.166,0,0,1,.342.836v.353A12.3,12.3,0,0,0,18.657,43.484v.094A12.359,12.359,0,0,0,22.261,52.294Zm28.632-29.68h0a1.162,1.162,0,0,0-.93-1.142,17.962,17.962,0,0,1-3.734-1.19,11.208,11.208,0,0,0,4.652,2.332ZM31.6,48.843a5.931,5.931,0,0,0,4.169-1.72,5.861,5.861,0,0,0,1.72-4.169V17.044a1.181,1.181,0,0,1,1.178-1.178h3.2c-.106-.236-.224-.448-.318-.707a1.208,1.208,0,0,0-1.107-.789H36.37a1.181,1.181,0,0,0-1.178,1.178V41.459a5.931,5.931,0,0,1-1.72,4.169,5.861,5.861,0,0,1-4.169,1.72,5.718,5.718,0,0,1-1.967-.365A5.858,5.858,0,0,0,31.6,48.832Z" transform="translate(2.197 1.843)" fill="#25f4ee" fill-rule="evenodd"/>
    <path id="Path_19890" data-name="Path 19890" d="M29.6,54.188A12.315,12.315,0,0,0,41.922,41.869V27.1c1.614,1.531,5.041,2.3,7.232,2.356a1.473,1.473,0,0,0,.978-.247,1.18,1.18,0,0,0,.436-.907V22.389a11.208,11.208,0,0,1-4.652-2.332,8.631,8.631,0,0,1-4.37-4.417h-3.2a1.181,1.181,0,0,0-1.178,1.178V42.729a5.931,5.931,0,0,1-1.72,4.169,5.876,5.876,0,0,1-8.433-.13,5.873,5.873,0,0,1,1.967-11.413,1.166,1.166,0,0,0,1.178-1.178V31A12.3,12.3,0,0,0,18.32,43.27v.094a12.359,12.359,0,0,0,3.6,8.715,12.275,12.275,0,0,0,.966.789A12.259,12.259,0,0,0,28.343,54.2h1.272Z" transform="translate(2.546 2.069)" fill="#fff" fill-rule="evenodd"/>
  </g>
</svg>
