<svg xmlns="http://www.w3.org/2000/svg" width="29.091" height="20" viewBox="0 0 29.091 20">
  <g id="Group_7370" data-name="Group 7370" transform="translate(0 -3)">
    <path id="Path_18787" data-name="Path 18787" d="M27.855,4.927c-.789-1.4-1.645-1.662-3.389-1.76C22.724,3.049,18.344,3,14.549,3s-8.184.049-9.924.165c-1.74.1-2.6.356-3.395,1.762C.418,6.329,0,8.744,0,12.995v.015c0,4.233.418,6.665,1.231,8.053.8,1.4,1.653,1.658,3.393,1.776,1.742.1,6.124.162,9.925.162s8.175-.06,9.918-.16c1.744-.118,2.6-.373,3.389-1.776.82-1.387,1.235-3.82,1.235-8.053V13c0-4.253-.415-6.667-1.236-8.069Z" fill="#1e3f5b" fill-rule="evenodd"/>
    <path id="Path_18788" data-name="Path 18788" d="M6,16.409V5.5l9.091,5.455Z" transform="translate(4.909 2.045)" fill="#fcfdff" fill-rule="evenodd" opacity="0.998"/>
  </g>
</svg>
